<svg width="356" height="258" viewBox="0 0 356 258" fill="none" xmlns="http://www.w3.org/2000/svg">
<path d="M289.634 156.1C286.545 155.959 284.017 154.344 282.05 151.255C281.067 149.289 280.646 147.041 280.787 144.514C280.927 141.705 284.789 119.936 292.373 79.2086L291.741 76.6807C287.106 76.9615 278.539 79.6299 266.04 84.6858C262.81 86.2306 259.931 88.1266 257.403 90.3736C255.016 92.1994 252.347 93.042 249.398 92.9016C245.606 92.6207 242.516 90.795 240.129 87.4244C238.303 84.4751 237.461 82.3685 237.601 81.1045C237.601 79.7001 238.514 78.6468 240.34 77.9446C251.434 71.6248 260.282 63.0579 266.883 52.244C266.883 52.1035 266.953 52.0333 267.094 52.0333C270.885 46.5561 276.854 37.0061 285 23.3834C287.106 19.7319 288.3 15.308 288.581 10.1117L289.424 5.26653C290.126 1.89595 292.162 0.140441 295.533 0C297.499 0 299.254 1.12353 300.799 3.37058C302.344 5.61763 303.327 8.21579 303.749 11.165C304.31 14.1143 305.855 16.6422 308.383 18.7488C312.737 22.5407 314.843 26.0518 314.703 29.2819C314.703 30.4054 314.282 31.3885 313.439 32.2312C310.63 35.6017 309.156 39.5341 309.015 44.0282C308.594 47.2583 307.821 51.0502 306.698 55.4039C306.698 56.387 306.698 57.2998 306.698 58.1425C306.838 58.9851 306.909 59.6873 306.909 60.2491C315.616 58.8447 323.902 56.5274 331.767 53.2973C340.333 49.7863 345.108 48.101 346.091 48.2414C348.198 48.3818 350.656 49.9969 353.465 53.0866C354.729 54.491 355.29 55.8954 355.15 57.2998C355.009 59.4064 353.535 60.8108 350.726 61.5131C340.895 63.4792 326.851 66.7094 308.594 71.2035C305.645 71.9057 303.749 73.8016 302.906 76.8913C302.204 79.1384 301.221 84.9667 299.957 94.3762C298.271 107.718 296.024 120.077 293.216 131.453C292.794 132.857 292.584 134.191 292.584 135.455C292.303 138.826 293.216 141.986 295.322 144.935C296.446 146.761 296.937 148.586 296.797 150.412C296.656 151.816 295.884 153.151 294.479 154.415C293.075 155.679 291.46 156.24 289.634 156.1ZM273.413 69.9395C281.278 67.8329 288.3 65.3752 294.479 62.5664C296.867 52.3142 298.271 45.573 298.693 42.3429L298.482 40.4469C298.903 33.4249 297.991 29.8437 295.743 29.7032C294.901 29.7032 293.496 31.1076 291.53 33.9164C289.564 36.5848 288.16 38.9021 287.317 40.8683C282.823 50.4182 277.346 59.1958 270.885 67.2009C270.745 67.3413 270.605 67.9031 270.464 68.8862C270.464 69.5884 270.956 69.9395 271.939 69.9395H273.413Z" fill="#B8B8B8"/>
<path d="M52.0484 156.1C48.9587 155.959 46.4307 154.344 44.4646 151.255C43.4815 149.289 43.0601 147.041 43.2006 144.514C43.341 141.705 47.2031 119.936 54.7869 79.2086L54.155 76.6807C49.5204 76.9615 40.9535 79.6299 28.4543 84.6858C25.2242 86.2306 22.3451 88.1266 19.8172 90.3736C17.4297 92.1994 14.7613 93.042 11.8121 92.9016C8.02017 92.6207 4.93047 90.795 2.54298 87.4244C0.717251 84.4751 -0.125394 82.3685 0.0150472 81.1045C0.0150472 79.7001 0.927912 78.6468 2.75364 77.9446C13.8485 71.6248 22.6962 63.0579 29.2969 52.244C29.2969 52.1035 29.3672 52.0333 29.5076 52.0333C33.2995 46.5561 39.2682 37.0061 47.4138 23.3834C49.5204 19.7319 50.7142 15.308 50.995 10.1117L51.8377 5.26653C52.5399 1.89595 54.5763 0.140441 57.9469 0C59.913 0 61.6685 1.12353 63.2134 3.37058C64.7582 5.61763 65.7413 8.21579 66.1626 11.165C66.7244 14.1143 68.2693 16.6422 70.7972 18.7488C75.1509 22.5407 77.2575 26.0518 77.117 29.2819C77.117 30.4054 76.6957 31.3885 75.8531 32.2312C73.0442 35.6017 71.5696 39.5341 71.4292 44.0282C71.0079 47.2583 70.2354 51.0502 69.1119 55.4039C69.1119 56.387 69.1119 57.2998 69.1119 58.1425C69.2523 58.9851 69.3226 59.6873 69.3226 60.2491C78.0299 58.8447 86.3159 56.5274 94.1806 53.2973C102.747 49.7863 107.522 48.101 108.506 48.2414C110.612 48.3818 113.07 49.9969 115.879 53.0866C117.143 54.491 117.704 55.8954 117.564 57.2998C117.424 59.4064 115.949 60.8108 113.14 61.5131C103.309 63.4792 89.2652 66.7094 71.0079 71.2035C68.0586 71.9057 66.1626 73.8016 65.32 76.8913C64.6178 79.1384 63.6347 84.9667 62.3707 94.3762C60.6855 107.718 58.4384 120.077 55.6296 131.453C55.2083 132.857 54.9976 134.191 54.9976 135.455C54.7167 138.826 55.6296 141.986 57.7362 144.935C58.8597 146.761 59.3513 148.586 59.2108 150.412C59.0704 151.816 58.298 153.151 56.8936 154.415C55.4891 155.679 53.8741 156.24 52.0484 156.1ZM35.8274 69.9395C43.6921 67.8329 50.7142 65.3752 56.8936 62.5664C59.281 52.3142 60.6855 45.573 61.1068 42.3429L60.8961 40.4469C61.3174 33.4249 60.4046 29.8437 58.1575 29.7032C57.3149 29.7032 55.9105 31.1076 53.9443 33.9164C51.9781 36.5848 50.5737 38.9021 49.7311 40.8683C45.237 50.4182 39.7598 59.1958 33.2995 67.2009C33.1591 67.3413 33.0186 67.9031 32.8782 68.8862C32.8782 69.5884 33.3697 69.9395 34.3528 69.9395H35.8274Z" fill="#B8B8B8"/>
<path d="M190.505 76.8475C190.461 77.4956 190.081 78.0788 189.39 78.6621C189.123 78.8781 188.833 79.0942 188.565 79.2886C188.32 79.483 188.097 79.6774 187.852 79.8503C186.915 80.5632 185.934 81.0168 184.908 81.1896C180.962 81.8593 178.42 81.9457 177.416 81.4489C176.257 80.8872 175.945 78.7485 175.811 77.9492V77.69C175.655 77.0203 175.254 75.6161 175.231 75.5945C175.231 75.5513 175.209 75.5297 175.209 75.5081C175.254 75.3785 175.521 75.2057 175.655 75.0977L175.811 74.9465C176.971 73.9311 178.398 72.8726 180.315 72.6134C180.984 72.5269 181.608 72.2893 182.21 72.0733C182.5 71.9437 182.79 71.8573 183.102 71.7709C183.593 71.598 184.017 71.598 184.351 71.7276C186.179 72.3973 188.208 73.3046 189.769 74.9897C190.327 75.6161 190.594 76.2426 190.55 76.8691L190.505 76.8475Z" fill="#DDDDDD"/>
<path d="M183.838 88.0782C183.169 88.5967 182.433 89.2664 181.809 90.1089C181.318 90.7786 180.582 91.0162 179.846 91.189C179.802 91.189 179.78 91.2106 179.757 91.2106L177.394 91.8803C177.238 91.9451 176.992 92.0099 176.658 92.0963H176.569C174.584 92.6364 172.934 92.4204 171.329 91.4267C169.5 90.3033 168.898 88.6399 169.5 86.6093C170.169 84.557 171.418 83.304 173.336 82.8072C173.558 82.7424 173.759 82.6127 173.893 82.5263C173.96 82.4615 174.116 82.3535 174.161 82.3535C174.339 82.4399 174.473 82.656 174.629 82.8504C174.718 82.98 174.807 83.0664 174.874 83.1528C175.833 84.2978 177.082 84.8594 178.575 84.8594H178.642C180.002 84.8594 181.318 84.773 182.321 84.665C183.526 84.6002 184.105 84.9026 184.529 85.8748C184.841 86.6309 184.596 87.4086 183.815 88.0566L183.838 88.0782Z" fill="#B8B8B8"/>
<path d="M167.07 92.0107C167.07 92.0107 167.026 92.0539 167.003 92.0756C166.446 92.8533 164.662 93.4797 163.346 93.7606C163.324 93.7606 163.28 93.7822 163.213 93.7822C162.744 93.9766 162.187 94.063 161.362 94.063C158.731 94.4518 158.084 94.1062 158.062 94.1062C158.017 94.0414 157.928 93.9766 157.839 93.955C157.705 93.9334 157.527 93.8686 157.192 93.739C155.743 93.1341 154.316 92.5292 152.889 91.9243C152.264 91.6867 152.108 91.4275 152.108 91.3627C152.242 89.2456 154.405 86.5236 156.657 86.4804L158.151 86.4372C159.065 86.394 159.935 86.3724 160.827 86.3508C161.362 86.3292 161.964 86.3724 162.454 86.6101C162.834 86.7829 163.146 86.8261 163.436 86.6965C163.77 86.5669 164.015 86.3076 164.216 85.854L164.283 85.6595C164.35 85.4651 164.439 85.2491 164.528 85.0547C164.55 84.9899 164.573 84.9899 164.595 85.0115C164.573 85.5083 164.684 85.8972 164.974 86.1564C165.219 86.4372 165.621 86.5669 166.134 86.5453C165.755 88.1006 166.29 89.5048 166.758 90.7578C166.847 91.017 166.936 91.3194 166.981 91.6219L167.025 91.8811L167.048 91.9675L167.07 92.0107Z" fill="#DDDDDD"/>
<path d="M168.139 79.63C166.422 81.4446 164.393 82.6327 162.141 83.1728C161.718 83.3024 161.272 83.3024 160.781 83.324C160.558 83.324 160.313 83.324 160.112 83.3456C159.064 83.3456 157.659 83.2592 156.344 82.5463C154.114 81.2934 153.691 77.9666 154.85 75.9575C155.474 74.8558 156.255 74.1429 157.28 73.7756C158.418 73.3652 159.644 73.1059 160.937 73.0195H161.138C161.918 73.0195 162.587 73.3436 162.989 73.9917C163.791 75.3094 164.973 76.0223 166.69 76.2383C167.627 76.3247 168.34 76.8432 168.63 77.5777C168.897 78.2906 168.697 79.0467 168.117 79.6732L168.139 79.63Z" fill="#B8B8B8"/>
<path d="M178.086 69.8881C176.815 71.3786 175.142 72.3076 173.359 73.3013L173.202 73.3877C171.731 73.7117 170.549 73.6253 170.504 73.6253C168.877 73.6685 167.583 73.3661 166.424 72.718C165.443 72.1996 164.685 70.8386 164.551 69.4128C164.484 68.6351 164.573 67.1445 165.933 66.086C166.625 65.5243 167.271 65.1571 167.896 64.8978L168.319 64.7034C168.319 64.7034 169.234 64.2065 170.727 64.2065C170.817 64.2065 170.928 64.2281 171.017 64.2281C171.709 64.3146 172.4 64.3578 173.046 64.3794C173.559 64.401 174.094 64.401 174.63 64.4442C174.942 64.4874 175.187 64.509 175.321 64.5306C175.343 64.5522 175.388 64.5738 175.455 64.5738C175.655 64.617 176.324 64.833 177.127 65.5459C178.063 66.3884 178.175 66.6909 178.309 67.0149C178.309 67.0581 178.331 67.1013 178.353 67.1445C179.067 68.0086 179 68.7863 178.086 69.8881Z" fill="#B8B8B8"/>
<path d="M237.373 77.6016C237.127 76.7591 236.615 76.219 235.789 75.9382C235.009 75.6789 234.251 75.4413 233.515 75.0957C230.929 73.9075 228.097 72.741 225.064 72.2009C223.058 71.8336 220.984 71.5096 218.999 71.2072C217.06 70.9047 215.03 70.6023 213.068 70.2566C210.058 69.7166 206.847 69.5006 203.569 69.6086C205.353 68.4852 206.446 66.8218 207.271 65.3528C207.538 64.8992 207.784 64.4239 208.029 63.9703C208.297 63.4734 208.564 62.9765 208.854 62.5013C210.036 60.449 209.88 58.656 208.319 56.9062C207.695 56.1933 206.959 55.9556 206.045 56.1501C203.882 56.5821 201.696 57.2734 198.909 58.3319C198.017 58.6776 197.103 58.98 196.211 59.2393C194.472 59.8009 192.666 60.3626 190.994 61.3995C191.016 61.3563 191.016 61.3131 191.038 61.2915L191.105 61.1403C191.596 59.8873 192.086 58.656 192.577 57.403C193.536 55.0267 194.517 52.564 195.409 50.1013C196.1 48.2003 196.746 46.256 197.371 44.3766C198.151 42.0651 198.932 39.6672 199.801 37.3557C200.827 34.6338 200.582 32.1711 199.065 29.8596C198.686 29.2979 198.129 28.4338 197.014 28.3258C194.65 28.1313 192.777 28.8226 191.506 30.4212L191.15 30.8533C189.901 32.4087 188.608 34.0073 187.225 35.4979C185.843 36.9885 184.327 38.4358 182.877 39.84C181.45 41.1794 180.001 42.5836 178.641 44.0309C178.596 44.0741 178.552 44.1174 178.507 44.1606C178.485 44.1606 178.485 44.1822 178.462 44.1822C178.15 43.2316 177.816 42.3027 177.481 41.3738C177.191 40.5745 176.902 39.7752 176.634 38.9759C176.077 37.3989 175.229 35.9515 174.114 34.6986C172.777 33.208 171.238 32.992 169.521 34.0289C167.001 35.5627 165.151 37.9174 163.88 41.2442C162.676 44.355 162.676 47.5954 162.743 50.663C162.765 51.0734 162.765 51.4623 162.765 51.8727C162.653 51.6351 162.564 51.3975 162.453 51.1598C161.873 49.7773 161.249 48.3299 160.29 47.0769C159.688 46.3208 159.086 45.5863 158.461 44.8302C157.614 43.7933 156.745 42.7348 155.92 41.6546C153.4 38.2198 150.367 34.9146 146.109 30.9181C144.057 29.0171 141.827 27.0728 138.862 24.6101C138.527 24.3509 138.215 24.07 137.903 23.8108C136.989 23.0331 136.052 22.2338 135.049 21.5425C134.67 21.3049 133.577 20.5704 132.552 21.3481C131.013 22.5362 130.233 23.854 130.143 25.3662C130.054 26.9432 130.255 28.5418 130.456 29.9028C130.746 31.7822 131.258 33.5752 131.927 35.7139C132.485 37.4853 133.109 39.3648 134.046 41.1362C134.804 42.4972 135.606 43.9877 136.142 45.5863C136.654 47.1417 137.39 48.7619 138.438 50.7062C139.709 53.0609 141.181 55.3292 142.608 57.5326C143.232 58.5048 143.856 59.4553 144.481 60.449C144.949 61.1619 145.417 61.9612 145.863 62.8469C145.707 62.7605 145.551 62.6741 145.373 62.6093C141.471 60.9027 137.858 59.8225 134.335 59.3041C134.112 59.2609 133.867 59.2393 133.622 59.2177L133.154 59.1528C129.408 58.5912 125.996 58.7208 122.718 59.4985C122.183 59.6281 121.715 59.8873 121.291 60.2546C120.11 61.2915 119.909 63.6678 120.89 65.2232C121.938 66.9082 123.477 68.1612 124.948 69.3493L125.193 69.5438C125.461 69.7814 125.751 70.019 126.018 70.2566C127.044 71.1208 128.114 71.9849 129.274 72.7626C128.36 72.5897 127.468 72.5033 126.554 72.5033C123.164 72.5033 120.377 73.9939 118.259 76.9535C117.701 77.7312 117.478 78.5737 117.635 79.3514C117.791 80.1723 118.348 80.9068 119.24 81.4901C119.731 81.8141 120.288 82.0733 120.845 82.3326C122.161 82.9374 123.499 83.4991 124.792 83.9528C126.041 84.4064 127.111 85.1409 128.226 85.9186C128.56 86.1562 128.917 86.3939 129.252 86.6099C130.701 87.5604 132.195 88.0789 133.8 88.1869C134.023 88.1869 134.246 88.2085 134.469 88.2301C134.871 88.2517 135.272 88.2949 135.651 88.2949C135.562 88.3597 135.495 88.4245 135.406 88.4893C135.094 88.6838 134.781 88.8998 134.492 89.1158C131.905 91.0817 129.385 93.4364 126.331 96.7848C123.521 99.874 121.381 103.309 119.998 106.981C118.46 111.086 118.192 114.78 119.195 118.236C119.998 121.001 120.556 122.341 124.591 122.578C126.977 122.708 128.427 121.93 129.318 120.051C129.831 118.949 130.679 117.977 131.883 117.07C133.064 116.206 134.179 115.104 135.205 113.808C137.323 111.086 140.222 107.586 143.723 104.627C143.879 104.497 144.057 104.367 144.236 104.259C144.302 104.216 144.392 104.151 144.459 104.108L144.325 104.583C144.079 105.383 143.834 106.204 143.634 107.024C142.809 110.33 142.273 113.829 142.073 117.459C141.827 121.866 141.894 125.516 142.273 128.973C142.452 130.463 142.831 132.386 144.146 134.028L144.236 134.136C144.548 134.525 144.949 135 145.618 135H145.707C147.045 134.892 148.762 134.611 150.055 133.207C150.39 132.84 150.724 132.472 151.036 132.105C151.371 131.738 151.683 131.371 152.017 131.025L152.731 130.247C154.269 128.562 155.853 126.813 157.101 124.847C157.168 124.739 157.213 124.696 157.213 124.674C157.235 124.696 157.28 124.739 157.324 124.825C157.48 125.084 157.681 125.3 157.882 125.516L157.993 125.646C158.305 125.97 158.595 126.121 158.93 126.143C159.22 126.164 159.532 126.013 159.822 125.754C160.156 125.452 160.491 125.171 160.825 124.89C162.141 123.745 163.501 122.578 164.348 120.915C164.482 120.677 164.66 120.44 164.905 120.202C164.972 120.116 166.444 118.193 167.024 117.113L167.068 117.048C167.068 117.048 167.113 116.94 167.135 116.919C167.983 115.125 168.473 113.484 168.651 111.928C168.674 111.712 168.741 111.539 168.919 111.323C169.075 111.151 169.298 110.891 169.476 110.848C169.744 111.41 171.595 115.125 172.799 116.594C172.866 116.681 172.933 116.767 172.999 116.854L173.156 117.027C173.936 118.02 174.739 119.036 175.608 119.986C178.15 122.73 180.915 125.624 184.237 127.979C187.158 130.053 190.057 131.371 193.09 131.976C195.029 132.386 196.813 130.939 197.192 129.405C197.482 128.195 197.259 127.072 196.969 125.927C196.702 124.89 196.457 123.853 196.211 122.794C195.81 121.153 195.409 119.446 194.963 117.783C194.026 114.369 192.8 110.416 190.592 106.765L190.793 106.83C191.105 106.96 191.417 107.068 191.752 107.197L192.532 107.478C194.138 108.083 195.788 108.688 197.482 109.12C200.648 109.898 203.77 109.833 207.249 109.66C209.367 109.574 211.218 108.839 212.756 107.478C213.291 107.024 213.425 106.506 213.157 105.858C212.957 105.361 212.622 104.994 212.266 104.648L212.087 104.432C211.53 103.849 210.995 103.266 210.437 102.682C209.322 101.516 208.163 100.328 207.159 99.0531C206.87 98.6642 206.557 98.297 206.267 97.9081C205.041 96.3311 203.77 94.7109 202.299 93.2635C201.897 92.8747 201.563 92.421 201.206 91.9458L200.938 91.6001C200.938 91.6001 200.916 91.5569 200.894 91.5569H200.938C203.012 91.773 205.086 91.6865 207.249 91.2761C210.593 90.6712 213.916 90.1744 217.149 89.7207C217.974 89.5911 218.776 89.4831 219.601 89.3751C221.318 89.1374 223.102 88.8998 224.841 88.5542C225.644 88.4029 226.38 88.1005 227.116 87.7765C228.587 87.1068 229.836 86.6099 231.085 86.2427C232.556 85.7674 234.429 85.0329 235.767 83.4343C237.395 81.5117 237.93 79.6106 237.373 77.6016ZM196.724 61.7236L197.192 61.5724C197.973 61.2915 198.731 61.0323 199.489 60.7731C201.362 60.1466 203.324 59.4769 205.197 58.6992C205.576 58.5264 205.933 58.5264 206.201 58.6992C206.535 58.9152 206.736 59.4121 206.736 60.017C206.736 60.5354 206.334 61.1835 206.067 61.6156C204.863 63.6246 203.436 65.9577 201.808 68.0964C201.072 69.1117 200.046 69.7814 198.753 70.1054C198.307 70.235 197.861 70.3431 197.415 70.4511C196.033 70.7751 194.628 71.0992 193.313 71.7472C191.127 72.849 189.544 73.9723 188.318 75.3117L188.206 75.4413L188.006 75.6357C187.404 76.2406 187.404 76.2622 186.802 75.7437C185.152 74.4044 183.725 73.6267 182.231 73.2162C182.253 73.1946 182.275 73.1946 182.298 73.173C182.766 72.8274 183.212 72.4817 183.68 72.1361L184.572 71.488C185.397 70.8615 186.11 70.1054 186.779 69.3709C187.203 68.9173 187.649 68.4636 188.095 68.0316C188.363 67.7939 188.652 67.5779 188.942 67.3619C189.544 66.9082 190.146 66.4546 190.525 65.8065C191.886 63.4086 194.249 62.5877 196.724 61.7236ZM164.883 79.0274C165.73 79.1138 166.377 79.5674 166.645 80.2371C166.89 80.8852 166.712 81.5765 166.176 82.1381C164.616 83.7799 162.787 84.8601 160.736 85.3569C160.357 85.465 159.955 85.465 159.509 85.4866C159.309 85.4866 159.086 85.4866 158.907 85.5082C157.949 85.5082 156.678 85.4218 155.496 84.7737C153.467 83.6287 153.088 80.6259 154.136 78.7897C154.693 77.796 155.407 77.1479 156.343 76.8023C157.369 76.435 158.484 76.1974 159.665 76.111H159.844C160.557 76.111 161.159 76.4134 161.516 76.9967C162.252 78.1848 163.322 78.8329 164.883 79.0274ZM164.192 69.8462C164.816 69.3277 165.396 69.0037 165.976 68.7661L166.355 68.5932C166.355 68.5932 167.18 68.1396 168.54 68.1396C168.629 68.1396 168.718 68.1612 168.808 68.1612C169.432 68.2476 170.056 68.2692 170.658 68.2908C171.126 68.2908 171.617 68.2908 172.085 68.3556C172.375 68.3988 172.598 68.4204 172.71 68.442C172.71 68.442 172.777 68.4852 172.821 68.4852C172.999 68.5284 173.601 68.7229 174.337 69.3709C175.185 70.127 175.296 70.4079 175.408 70.7103C175.408 70.7535 175.43 70.7967 175.452 70.8183C176.099 71.596 176.032 72.3089 175.207 73.3026C174.047 74.6636 172.531 75.5061 170.926 76.3918L170.792 76.4782C169.454 76.7807 168.384 76.6943 168.339 76.6943C166.868 76.7375 165.686 76.4566 164.638 75.8734C163.746 75.3981 163.055 74.1667 162.943 72.8706C162.876 72.1577 162.966 70.8183 164.192 69.8462ZM168.072 82.7862C168.651 81.6413 168.83 80.626 168.651 79.589C168.629 79.481 168.629 79.4378 168.607 79.4162H168.808C168.941 79.4162 169.097 79.4378 169.231 79.3946C170.101 79.3946 170.235 79.481 170.48 80.2155C170.658 80.7124 170.792 81.2308 170.903 81.7493L171.015 82.2246C171.06 82.3542 171.037 82.4622 170.837 82.5486L170.636 82.635C170.279 82.8078 169.922 82.9806 169.566 83.0671C168.428 83.3479 167.47 83.9312 166.6 84.8169L166.489 84.9249C166.221 85.2057 165.976 85.465 165.641 85.5946C166.734 84.8169 167.559 83.8664 168.072 82.7862ZM167.403 88.4677C168.005 86.6099 169.142 85.465 170.881 85.0113C171.082 84.9465 171.26 84.8385 171.394 84.7521C171.461 84.6873 171.595 84.6009 171.639 84.6009C171.795 84.6873 171.929 84.8817 172.063 85.0545C172.152 85.1625 172.219 85.2489 172.286 85.3353C173.156 86.3723 174.293 86.8907 175.653 86.8907H175.72C176.946 86.8907 178.15 86.8043 179.064 86.7179C180.157 86.6531 180.692 86.9339 181.071 87.8197C181.361 88.5109 181.138 89.2022 180.425 89.8071C179.823 90.2824 179.154 90.8872 178.574 91.6433C178.128 92.2482 177.459 92.4642 176.79 92.6155C176.745 92.6155 176.723 92.6371 176.701 92.6371L174.56 93.2419C174.427 93.3067 174.204 93.35 173.891 93.4364H173.802C171.996 93.9332 170.502 93.7388 169.053 92.8315C167.403 91.8162 166.845 90.304 167.403 88.4677ZM174.583 83.7799C173.535 83.2615 173.245 81.3388 173.133 80.6043V80.3667C172.999 79.7618 172.62 78.4873 172.598 78.4657C172.598 78.4225 172.598 78.4009 172.598 78.3793C172.643 78.2713 172.888 78.0984 172.999 78.012L173.133 77.8824C174.181 76.9535 175.475 76.003 177.214 75.7653C177.816 75.6789 178.395 75.4629 178.931 75.2685C179.198 75.1605 179.466 75.0741 179.733 74.9876C180.179 74.8364 180.558 74.8364 180.871 74.9444C182.521 75.5493 184.371 76.3702 185.776 77.904C186.289 78.4657 186.534 79.049 186.49 79.6106C186.445 80.1939 186.11 80.734 185.486 81.2524C185.241 81.4469 184.973 81.6413 184.728 81.8141C184.505 81.9869 184.304 82.1597 184.081 82.3326C183.234 82.9806 182.342 83.3911 181.406 83.5423C177.816 84.1472 175.519 84.2336 174.605 83.7799H174.583ZM182.409 89.5911C182.476 89.3102 182.587 89.0078 182.744 88.727C183.011 88.2733 183.301 87.69 183.301 86.9771C183.301 86.6315 183.234 86.2643 183.056 85.8754C183.658 85.4434 184.237 85.0329 184.817 84.5793C185.062 84.4064 185.33 84.3416 185.598 84.428C185.999 84.5144 186.289 84.7737 186.423 85.1841C186.423 85.1841 186.646 85.5946 186.668 86.3291C186.668 87.0636 186.467 87.6252 186.066 87.9709C186.021 87.9925 185.999 88.0141 185.954 88.0357C185.954 88.0357 185.887 88.1005 185.843 88.1221C185.598 88.2949 185.352 88.4893 185.107 88.6622C184.483 89.159 183.858 89.6127 183.1 89.7639L182.632 89.8287C182.454 89.8719 182.409 89.8071 182.409 89.8071C182.409 89.8071 182.364 89.7639 182.409 89.5911ZM177.169 49.41C177.169 49.41 177.281 49.3236 177.303 49.2804L179.6 46.5153L180.001 46.1264L183.033 43.2965C183.658 42.6268 184.327 42.0003 184.996 41.3954C185.731 40.7473 186.467 40.056 187.136 39.3216C187.983 38.3926 188.853 37.4853 189.723 36.5996C190.079 36.2324 190.436 35.8435 190.793 35.4763C191.64 34.5906 192.309 33.64 192.822 32.6679C193.357 31.631 195.074 30.6589 196.3 30.7237C196.479 30.7453 196.59 30.8101 196.724 31.0261C197.46 32.1278 197.817 33.1864 197.817 34.2881C197.817 35.0442 197.661 35.7571 197.348 36.4268C195.988 39.516 194.985 42.778 194.026 45.932C193.825 46.5585 193.625 47.1849 193.446 47.8114C191.952 52.5856 190.079 58.2023 187.582 63.495C186.601 65.6121 185.642 67.4915 184.037 69.0037C183.457 69.5654 182.788 70.1918 182.03 70.6455C180.982 71.2504 179.934 71.9849 178.931 72.849C178.44 73.2594 177.86 73.3458 177.214 73.4322C177.281 73.1946 177.37 72.9786 177.481 72.7626C178.306 70.8183 177.95 69.4789 176.255 68.1612C175.185 67.3403 174.025 66.4978 172.487 66.325C172.041 66.2601 171.706 65.9361 171.416 65.2664C170.703 63.6462 170.524 61.9828 170.881 60.3626C171.639 56.971 173.267 53.8818 175.675 51.1814C176.032 50.8142 176.344 50.4037 176.589 49.9933C176.745 49.7341 176.946 49.518 177.169 49.41ZM164.638 50.2957C164.638 49.7773 164.682 49.2588 164.682 48.7403C164.727 48.4595 164.928 47.0985 165.151 45.8672L165.262 45.1975C165.686 42.9292 166.11 40.7905 167.603 38.9975C168.54 37.8742 169.677 36.9885 170.993 36.3836C171.416 36.1676 172.085 36.0163 172.888 36.9236C173.445 37.5717 173.914 38.3278 174.248 39.2135C174.828 40.7257 175.385 42.2379 175.943 43.7717L176.411 45.0895C176.701 45.824 176.589 46.3424 176.077 46.8825C174.538 48.5459 172.62 50.6198 171.216 52.9313C169.41 55.934 168.406 58.548 168.072 61.1403C167.826 62.9981 168.094 64.7264 168.897 66.2169C168.919 66.2817 168.964 66.3466 168.964 66.3898H168.83C168.518 66.3682 168.228 66.4114 167.893 66.433C167.76 66.4546 167.626 66.4546 167.403 66.4978C167.247 66.5194 167.202 66.5194 167.202 66.5194C167.202 66.5194 167.157 66.433 167.157 66.1953C167.157 64.4239 166.845 62.6957 166.199 60.9027C165.262 58.3319 164.905 55.61 164.66 53.2769C164.571 52.3048 164.616 51.2679 164.66 50.2957H164.638ZM125.193 65.8065C124.502 65.2232 123.856 64.5319 123.298 63.7542C122.986 63.3654 122.874 63.0413 122.964 62.7821C123.031 62.5229 123.32 62.2852 123.811 62.0692C125.84 61.2699 128.025 60.8163 130.344 60.7731C130.5 60.7731 130.634 60.7514 130.768 60.7514C133.198 60.7514 135.762 61.2699 138.728 62.3068C139.219 62.4797 139.687 62.6525 140.155 62.8037C141.426 63.2358 142.742 63.6678 143.968 64.2943C145.618 65.0936 147.112 66.1953 148.539 67.2539C148.851 67.4915 149.141 67.7075 149.453 67.9235C149.743 68.1396 150.055 68.3772 150.345 68.5932C150.969 69.0685 151.616 69.5438 152.285 69.9758C153.578 70.8399 154.961 71.2936 156.432 71.3368H157.28C157.904 71.38 158.551 71.38 159.197 71.38C159.576 71.38 159.911 71.2072 160.067 70.9263C160.223 70.6671 160.201 70.2999 159.978 69.9542C159.643 69.4141 159.13 69.0901 158.528 69.0685C155.094 68.8741 152.82 66.8434 150.858 64.6831C149.409 63.1061 148.338 61.2483 147.29 59.4337L147.112 59.1312C145.774 56.8198 144.258 54.5299 142.809 52.3264C142.363 51.6567 141.917 50.987 141.471 50.2957C140.869 49.3668 140.4 48.4379 140.088 47.5306C139.419 45.4999 138.505 43.5341 137.613 41.6546C137.279 40.9634 136.944 40.2505 136.632 39.5592C136.075 38.3278 135.606 37.0533 135.16 35.8003L134.759 34.6338C134.269 33.316 133.956 31.9982 133.622 30.5076C133.243 28.8874 133.087 27.1592 133.131 25.215C133.131 24.8261 133.198 24.5021 133.332 24.1996C133.466 23.8756 133.577 23.8108 133.644 23.7892C133.689 23.7892 133.8 23.7892 134.09 23.962C134.893 24.4589 135.673 25.0854 136.409 25.6686C136.677 25.8847 136.944 26.1007 137.19 26.3167C141.917 30.054 145.373 33.1 148.361 36.254C150.903 38.8895 153.422 41.8491 156.365 45.5431C159.599 49.6476 161.427 54.2706 162.809 58.2671C162.988 58.7856 163.166 59.3041 163.367 59.8009C163.857 61.0971 164.37 62.4365 164.571 63.819C164.66 64.5103 164.749 65.2448 164.705 66.0009C164.638 67.1891 164.08 68.0532 163.077 68.55C160.78 69.7166 160.647 71.7688 160.758 73.1946V73.3242C160.78 73.5403 160.803 73.7563 160.78 73.7995C160.736 73.8427 160.446 73.9075 160.223 73.9291C157.726 74.3612 155.763 75.0308 154.069 76.0678C153.667 76.2838 153.4 76.543 153.177 76.8455C152.709 77.5368 151.995 77.904 151.014 77.9472C149.208 78.0336 147.58 77.8824 146.064 77.4504C145.417 77.2559 144.793 77.0831 144.146 76.9103C142.809 76.543 141.426 76.1542 140.088 75.7221C137.769 74.9444 135.473 73.6699 133.02 71.8336L131.637 70.8183C129.497 69.2197 127.267 67.5563 125.193 65.8065ZM134.001 85.6162C132.061 85.573 130.612 84.4496 129.408 83.4127C129.408 83.4127 129.363 83.3695 129.341 83.3695C128.694 82.7214 126.91 81.9653 125.483 81.4036C125.461 81.4036 125.416 81.382 125.394 81.382C124.814 81.2524 124.257 81.0796 123.699 80.8204C122.897 80.4315 122.005 80.0643 120.979 79.697C120.667 79.589 120.466 79.4594 120.422 79.3298C120.355 79.2002 120.422 78.9625 120.578 78.6601C121.18 77.4936 122.183 76.5862 123.833 75.7221C124.814 75.2253 125.929 74.9444 126.91 74.9444H127.178C128.337 74.9444 129.118 75.0957 129.787 75.4845C131.102 76.219 132.552 76.5214 133.956 76.7807L134.38 76.8671C135.428 77.0831 136.431 77.5152 137.39 77.9256C137.68 78.0552 137.992 78.1848 138.282 78.2929C141.917 79.805 145.841 80.6476 149.944 80.8204H150.144C150.144 80.8204 150.301 80.8204 150.345 80.842C150.523 80.8852 150.702 80.8636 150.88 80.842C151.192 80.8204 151.215 80.842 151.259 80.9716C151.482 81.5333 151.259 82.2894 150.858 82.6134C150.412 82.959 149.855 83.0239 149.253 83.0887H149.074C147.848 83.2615 146.822 83.5207 145.908 83.8664C144.659 84.3632 143.411 84.8385 142.162 85.3137C141.181 85.681 140.222 86.0698 139.241 86.4371C139.018 86.5235 138.906 86.5451 138.795 86.5019C137.234 85.8106 135.562 85.6594 134.001 85.6162ZM142.675 101.797C139.308 104.54 136.454 107.781 134.09 110.567C132.596 112.382 130.924 114.045 129.341 115.558C128.114 116.724 127.156 117.891 126.442 119.1C126.018 119.792 125.483 120.094 124.725 120.008C122.651 119.813 122.183 119.597 121.737 117.696C121.47 116.486 121.403 115.255 121.381 113.786C121.291 111.842 122.005 109.682 122.651 108.018C124.346 103.525 127.312 99.3771 131.66 95.2942C135.317 91.881 138.973 89.4183 142.853 87.7116C145.44 86.5883 147.669 86.005 149.855 85.8754C150.078 85.8754 150.345 85.8754 150.59 85.7458C150.813 85.6378 151.014 85.5946 151.237 85.5946C151.661 85.5946 152.084 85.8106 152.642 86.3075C152.932 86.5667 153.266 86.8475 153.266 86.9556C153.266 87.0636 152.909 87.4092 152.642 87.6468C151.661 88.5758 150.836 89.6127 150.211 90.7144C148.918 93.0043 149.141 94.6893 150.969 96.5256C151.081 96.6336 151.103 96.6768 151.126 96.6984C151.103 96.6984 151.081 96.7416 150.969 96.828C150.68 97.0224 150.345 97.1952 149.921 97.3465C147.067 98.3618 144.682 100.176 142.675 101.797ZM154.604 123.896C154.247 124.307 153.913 124.76 153.601 125.192C153.444 125.408 153.288 125.624 153.11 125.84C151.527 127.893 149.877 129.751 148.182 131.414C147.959 131.63 147.692 131.846 147.357 132.084C146.733 132.494 146.532 132.472 146.086 131.889C145.507 131.155 145.15 130.269 144.994 129.189C144.793 127.936 144.748 126.64 144.682 125.387C144.637 124.479 144.592 123.572 144.503 122.665C144.347 120.526 144.414 118.323 144.704 116.098C144.793 115.342 144.882 114.585 144.971 113.808C145.217 111.496 145.484 109.098 146.153 106.808C146.822 104.562 147.647 102.877 148.807 101.516C149.342 100.846 149.921 100.436 150.59 100.22C151.861 99.8308 152.82 99.0531 153.712 98.297C154.091 97.9513 154.426 97.8001 154.782 97.8001C154.894 97.8001 155.005 97.8217 155.139 97.8649C155.496 97.9513 155.54 98.1025 155.496 98.3402C155.474 98.4698 155.451 98.5994 155.429 98.729C155.407 98.9451 155.362 99.1611 155.295 99.3771C154.76 101.192 154.559 103.028 154.426 105.231C154.292 107.651 154.225 109.638 154.225 111.496C154.247 114.348 154.649 117.048 155.407 119.532C155.964 121.304 155.719 122.643 154.604 123.896ZM156.254 94.9702C154.938 94.4301 153.645 93.8684 152.352 93.3283C151.794 93.1123 151.638 92.8747 151.638 92.8099C151.75 90.8872 153.712 88.4245 155.763 88.3813L157.124 88.3381C157.949 88.2949 158.751 88.2733 159.554 88.2517C160.045 88.2301 160.58 88.2733 161.026 88.4893C161.36 88.6406 161.65 88.6838 161.918 88.5758C162.23 88.4677 162.453 88.2301 162.631 87.8197L162.698 87.6468C162.765 87.474 162.832 87.2796 162.921 87.1068C162.943 87.042 162.966 87.042 162.988 87.0636C162.988 87.5172 163.077 87.8629 163.322 88.1005C163.545 88.3597 163.902 88.4677 164.37 88.4461C164.036 89.8503 164.504 91.1249 164.928 92.2698C165.017 92.5075 165.084 92.7883 165.128 93.0475L165.173 93.2851L165.195 93.3716C165.173 93.3932 165.151 93.4148 165.128 93.4364C164.616 94.1493 163.01 94.7109 161.806 94.9702C161.784 94.9702 161.739 94.9918 161.695 94.9918C161.271 95.1646 160.758 95.251 160.022 95.251C157.636 95.5966 157.057 95.2942 157.034 95.2942C156.99 95.2294 156.923 95.1862 156.834 95.1646C156.722 95.143 156.544 95.0782 156.254 94.9702ZM165.931 113.03C164.526 116.508 162.52 119.597 159.933 122.211C159.911 122.211 159.866 122.276 159.866 122.276C159.777 122.341 159.71 122.427 159.621 122.492C159.532 122.6 159.331 122.773 159.286 122.794C159.175 122.73 159.108 122.643 159.063 122.535C159.063 122.47 159.063 122.492 159.019 122.449C158.595 121.585 158.06 119.338 157.882 118.647C157.168 115.752 156.834 112.814 156.923 109.919C156.945 109.206 156.945 108.493 156.945 107.781C156.945 106.614 156.945 105.426 157.034 104.259C157.19 102.293 157.726 100.371 158.194 98.9235C158.417 98.2538 158.684 98.1025 159.665 98.1025H159.978C160.446 98.1458 160.959 98.1674 161.026 98.2322C161.07 98.297 161.048 98.621 161.048 98.9019C161.026 99.0531 161.026 99.2259 161.026 99.3987C160.936 102.531 162.163 105.275 163.456 107.845C163.478 107.91 163.523 107.997 163.568 108.061C163.679 108.213 163.768 108.364 163.813 108.537C164.036 109.271 164.571 109.725 164.995 110.027C166.176 110.87 166.444 111.734 165.931 113.03ZM169.655 104.843L169.454 105.275C168.986 106.312 168.495 107.37 167.76 108.277C167.559 108.537 167.314 108.666 167.091 108.666H167.046C166.823 108.645 166.622 108.493 166.489 108.234C165.262 105.88 163.991 103.438 163.456 100.738C163.077 98.729 163.501 97.3465 164.861 96.2879C165.106 96.0935 165.329 95.8991 165.552 95.7047C165.753 95.5102 165.931 95.3374 166.154 95.1646C166.332 95.035 166.489 94.9702 166.667 94.9702C166.823 94.9702 167.001 95.035 167.157 95.1862C167.76 95.7262 168.428 96.0503 169.298 96.2015C170.145 96.3527 170.636 96.9144 170.77 97.8865C170.814 98.2754 170.859 98.7074 170.881 99.1179C170.903 99.3339 170.926 99.5715 170.926 99.766C171.015 101.667 170.346 103.395 169.655 104.843ZM194.093 124.479L194.182 124.868C194.472 126.078 194.74 127.201 194.873 128.303C194.873 128.822 194.717 129.21 194.427 129.426C194.16 129.599 193.803 129.621 193.379 129.491C192.109 129.081 190.771 128.627 189.121 128.044C188.318 127.763 187.582 127.309 186.69 126.575C185.887 125.884 185.04 125.236 184.215 124.587C182.565 123.313 180.871 121.974 179.443 120.397C176.835 117.459 174.538 114.758 172.754 111.604C172.308 110.783 172.041 109.898 171.751 108.969C171.595 108.385 171.416 107.781 171.171 107.219C171.104 106.981 171.238 106.7 171.327 106.571C172.866 104.108 173.445 101.278 173.2 97.4329C173.133 96.3959 173.267 96.2231 174.36 95.9855C174.761 95.8775 175.185 95.8127 175.608 95.7262C175.92 95.683 176.255 95.6182 176.567 95.5534C177.325 95.4022 177.972 95.035 178.618 94.6677L178.886 94.5381C178.886 94.5381 178.975 94.4733 178.998 94.4733C178.998 94.4733 178.998 94.4877 178.998 94.5165C179.488 96.5039 180.692 98.1026 181.874 99.6363L182.052 99.8956C182.699 100.716 183.301 101.494 183.792 102.358C183.97 102.661 184.171 102.963 184.505 103.158C186.445 104.281 187.381 106.117 188.363 108.04C190.659 112.555 192.421 117.631 194.071 124.479H194.093ZM201.295 95.5534C201.295 95.5534 201.295 95.575 201.34 95.5966C202.499 96.8928 203.569 98.297 204.573 99.6795L205.22 100.522C206.78 102.639 208.185 104.281 209.59 105.685C209.88 105.966 209.969 106.096 209.969 106.096C209.924 106.182 209.523 106.355 209.389 106.42C208.074 107.068 206.624 107.219 204.885 107.24H204.751C199.288 107.24 194.539 106.117 190.213 103.849C188.586 102.985 186.735 102.013 185.241 100.608C184.728 100.112 184.394 99.5067 184.014 98.8802C183.792 98.5346 183.591 98.1674 183.323 97.8217C182.9 97.2384 182.521 96.6336 182.119 96.0287C181.896 95.683 181.673 95.359 181.45 95.0134C181.16 94.6029 180.96 94.106 180.848 93.5444C180.714 92.7883 180.96 92.3778 181.673 92.1402C182.052 92.0106 182.431 91.9458 182.766 91.9458C184.081 91.881 185.33 91.4273 186.668 90.5416C186.735 90.4984 186.802 90.4552 186.846 90.412L187.092 90.1744C187.203 90.0879 187.627 89.8719 189.009 89.8719C189.388 89.8719 189.856 89.8935 190.414 89.9367H190.503C192.889 89.9583 194.851 90.1743 196.68 91.0817C197.17 91.3193 197.616 91.6433 198.062 91.9674C198.285 92.1402 198.53 92.313 198.798 92.5074L198.909 92.6371C200.292 94.3221 201.094 95.3158 201.295 95.5534ZM234.407 80.8636C233.649 82.0085 232.601 82.8942 231.285 83.4775C227.049 85.3137 223.258 86.5667 219.668 87.3012C217.862 87.6684 215.989 87.8845 214.116 87.9277C211.574 88.0141 209.144 88.5542 206.892 89.1374C204.93 89.6343 202.967 89.4399 201.295 89.2022C199.444 88.9646 197.616 88.4893 195.832 88.0573C194.807 87.7981 193.803 87.5388 192.777 87.3228C192.354 87.2364 191.908 87.15 191.484 87.0636C190.994 86.9556 190.481 86.8475 189.99 86.7395C189.344 86.5883 189.031 86.2427 189.009 85.6594C188.987 84.6657 188.808 83.2615 187.426 82.2894C187.404 82.2678 187.337 82.2246 187.337 82.1813C187.315 82.1381 187.359 82.0517 187.426 81.9869C188.273 81.0148 188.429 79.805 188.474 78.7681C188.474 78.0768 188.764 77.6016 189.366 77.1911C189.79 76.9103 190.191 76.6078 190.615 76.3054C191.194 75.8518 191.796 75.3981 192.398 75.0308C194.829 73.5835 197.571 72.9138 199.957 72.4385C201.317 72.1577 202.678 72.0281 204.015 72.0065C205.42 72.1577 206.847 72.2225 208.23 72.2657C210.905 72.3737 213.67 72.4817 216.279 73.3026C217.662 73.7131 219.066 73.7995 220.426 73.8643C221.051 73.9075 221.697 73.9291 222.322 73.9939C223.637 74.1451 224.975 74.426 226.246 74.6852C226.759 74.7932 227.272 74.9012 227.762 74.9876C227.941 75.0308 228.119 75.0957 228.253 75.2037C229.791 76.2838 231.464 76.8455 233.225 77.4071C234.095 77.688 234.675 78.12 234.898 78.7033C235.121 79.3082 234.942 80.0427 234.407 80.8636Z" fill="#8D8D8D"/>
<path d="M206.624 59.9532C206.601 60.4717 206.245 61.1198 205.977 61.5518C204.751 63.5609 203.324 65.894 201.696 68.0327C200.96 69.048 199.934 69.7177 198.641 70.0417C198.195 70.1713 197.749 70.2793 197.303 70.3874C195.943 70.7114 194.516 71.0354 193.201 71.6835C191.038 72.7853 189.432 73.9086 188.206 75.248L188.094 75.3776C188.094 75.3776 187.983 75.5072 187.894 75.572C187.292 76.1769 187.292 76.1985 186.69 75.68C185.04 74.3407 183.613 73.563 182.119 73.1525C182.119 73.1309 182.163 73.1309 182.186 73.1093C182.654 72.7637 183.122 72.418 183.568 72.0724L184.46 71.4243C185.307 70.7978 185.998 70.0417 186.69 69.3072C187.091 68.8536 187.537 68.3999 187.983 67.9679C188.251 67.7302 188.54 67.5142 188.83 67.2982C189.432 66.8445 190.057 66.3909 190.413 65.7428C191.774 63.3449 194.137 62.524 196.634 61.6599L197.103 61.5086C197.861 61.2278 198.619 60.9686 199.377 60.7093C201.272 60.0829 203.212 59.4132 205.085 58.6355C205.464 58.4627 205.821 58.4627 206.089 58.6355C206.423 58.8515 206.624 59.3484 206.624 59.9532Z" fill="#EFEDE4"/>
<path d="M234.318 80.7941C233.537 81.9391 232.489 82.8248 231.174 83.4081C226.959 85.2443 223.147 86.4972 219.557 87.2317C217.751 87.599 215.878 87.815 214.005 87.8582C211.463 87.9446 209.032 88.4847 206.78 89.068C204.818 89.5648 202.856 89.3704 201.183 89.1328C199.333 88.8952 197.504 88.4199 195.721 87.9878C194.695 87.7286 193.691 87.4694 192.666 87.2533C192.242 87.1669 191.818 87.0805 191.372 86.9941C190.882 86.8861 190.369 86.7781 189.879 86.6701C189.232 86.5189 188.92 86.1732 188.897 85.5899C188.875 84.5962 188.697 83.192 187.314 82.2199C187.314 82.1983 187.225 82.1551 187.225 82.1119C187.225 82.0687 187.247 81.9823 187.314 81.9175C188.184 80.9454 188.318 79.7356 188.362 78.6987C188.385 78.0074 188.674 77.5321 189.254 77.1217C189.678 76.8408 190.101 76.5384 190.503 76.236C191.083 75.7823 191.685 75.3286 192.309 74.9614C194.717 73.514 197.482 72.8443 199.846 72.3691C201.206 72.0882 202.588 71.9586 203.904 71.937C205.308 72.0882 206.736 72.153 208.118 72.1962C210.794 72.3043 213.559 72.4123 216.167 73.2332C217.572 73.6436 218.955 73.73 220.315 73.7948C220.939 73.8381 221.586 73.8597 222.21 73.9245C223.526 74.0757 224.863 74.3565 226.134 74.6157C226.647 74.7238 227.16 74.8318 227.651 74.9182C227.829 74.9614 228.007 75.0262 228.141 75.1342C229.68 76.2144 231.374 76.776 233.114 77.3377C233.983 77.6185 234.563 78.0506 234.786 78.6339C235.009 79.2387 234.853 79.9732 234.318 80.7941Z" fill="white"/>
<path d="M209.881 106.031C209.881 106.031 209.413 106.29 209.279 106.355C207.963 107.003 206.514 107.155 204.775 107.176H204.641C199.178 107.176 194.429 106.053 190.103 103.785C188.475 102.92 186.624 101.948 185.13 100.544C184.618 100.047 184.283 99.4424 183.904 98.816C183.703 98.4703 183.48 98.1031 183.235 97.7574C182.812 97.1741 182.41 96.5693 182.009 95.9644C181.786 95.6187 181.563 95.2947 181.34 94.9491C181.05 94.5386 180.849 94.0417 180.76 93.4801C180.626 92.724 180.872 92.3135 181.563 92.0759C181.942 91.9463 182.321 91.8815 182.655 91.8815C183.971 91.8167 185.22 91.363 186.558 90.4773C186.647 90.4341 186.691 90.3909 186.736 90.3477L186.803 90.2829L186.981 90.1101C186.981 90.1101 187.516 89.8076 188.899 89.8076C189.278 89.8076 189.746 89.8292 190.304 89.8724H190.393C192.779 89.894 194.741 90.1101 196.591 91.0174C197.082 91.255 197.506 91.579 197.952 91.9031C198.197 92.0759 198.42 92.2487 198.687 92.4431L198.799 92.5728C200.181 94.2578 200.984 95.2515 201.185 95.4891C201.207 95.4891 201.207 95.5107 201.229 95.5323C202.389 96.8285 203.459 98.2327 204.463 99.6152L205.109 100.458C206.67 102.575 208.075 104.217 209.479 105.621C209.769 105.902 209.859 106.031 209.881 106.031Z" fill="#F4F4F4"/>
<path d="M194.761 128.238C194.761 128.756 194.605 129.145 194.315 129.361C194.048 129.534 193.691 129.555 193.267 129.426C191.996 129.015 190.658 128.562 189.008 127.978C188.206 127.698 187.47 127.244 186.578 126.509C185.775 125.818 184.928 125.17 184.125 124.522C182.453 123.247 180.758 121.908 179.331 120.331C176.722 117.393 174.426 114.693 172.642 111.539C172.196 110.718 171.928 109.832 171.661 108.903C171.483 108.32 171.304 107.715 171.081 107.153C170.992 106.916 171.126 106.635 171.215 106.505C172.776 104.043 173.356 101.213 173.088 97.3673C173.021 96.3304 173.155 96.1575 174.247 95.9199C174.649 95.8119 175.072 95.7471 175.496 95.6607C175.808 95.6175 176.143 95.5527 176.455 95.4879C177.213 95.3366 177.882 94.9694 178.506 94.6021L178.774 94.4725C178.774 94.4725 178.863 94.4077 178.885 94.4077C178.885 94.4293 178.908 94.4293 178.908 94.4509C179.398 96.4384 180.602 98.037 181.784 99.5708L181.962 99.83C182.609 100.651 183.211 101.429 183.702 102.293C183.88 102.595 184.081 102.898 184.415 103.092C186.355 104.215 187.292 106.052 188.273 107.974C190.592 112.489 192.331 117.566 193.981 124.414L194.07 124.803C194.36 126.012 194.627 127.136 194.761 128.238Z" fill="#F4F4F4"/>
<path d="M170.837 99.6982C170.904 101.599 170.235 103.327 169.543 104.775L169.343 105.207C168.875 106.244 168.384 107.302 167.648 108.21C167.47 108.469 167.225 108.598 166.979 108.598H166.935C166.712 108.577 166.511 108.426 166.377 108.166C165.151 105.812 163.88 103.371 163.367 100.67C162.966 98.6612 163.389 97.2786 164.749 96.2201C164.995 96.0257 165.218 95.8313 165.441 95.6368C165.641 95.4424 165.842 95.2696 166.043 95.0968C166.221 94.9672 166.4 94.9023 166.556 94.9023C166.734 94.9023 166.89 94.9672 167.046 95.1184C167.648 95.6584 168.339 95.9825 169.187 96.1337C170.056 96.2849 170.525 96.8466 170.658 97.8187C170.725 98.2076 170.748 98.6396 170.77 99.0501C170.792 99.2661 170.814 99.5037 170.837 99.6982Z" fill="#EFEDE4"/>
<path d="M165.82 112.964C164.437 116.442 162.408 119.531 159.822 122.145C159.799 122.145 159.755 122.21 159.755 122.21C159.666 122.275 159.599 122.361 159.532 122.426C159.42 122.534 159.242 122.707 159.197 122.729C159.064 122.664 158.997 122.577 158.974 122.469C158.952 122.404 158.974 122.426 158.93 122.383C158.484 121.519 157.949 119.272 157.793 118.581C157.057 115.686 156.722 112.748 156.811 109.853C156.834 109.14 156.834 108.428 156.834 107.715C156.834 106.548 156.834 105.36 156.923 104.193C157.079 102.228 157.636 100.305 158.082 98.8575C158.305 98.1878 158.573 98.0366 159.554 98.0366H159.866C160.357 98.0798 160.847 98.1014 160.914 98.1662C160.959 98.231 160.937 98.5551 160.937 98.8359C160.914 98.9871 160.914 99.16 160.914 99.3328C160.825 102.465 162.051 105.209 163.345 107.779C163.389 107.844 163.434 107.931 163.478 107.995C163.568 108.147 163.657 108.298 163.701 108.471C163.924 109.205 164.46 109.659 164.906 109.961C166.087 110.804 166.355 111.668 165.82 112.964Z" fill="white"/>
<path d="M154.493 123.83C154.136 124.24 153.801 124.694 153.489 125.126C153.333 125.342 153.177 125.558 153.021 125.774C151.438 127.826 149.766 129.684 148.071 131.348C147.848 131.564 147.58 131.78 147.246 132.017C146.644 132.428 146.421 132.406 145.975 131.823C145.395 131.088 145.039 130.203 144.882 129.123C144.704 127.87 144.637 126.574 144.57 125.321C144.526 124.413 144.481 123.506 144.392 122.599C144.258 120.46 144.303 118.256 144.593 116.031C144.682 115.275 144.771 114.519 144.86 113.742C145.105 111.43 145.373 109.032 146.042 106.742C146.711 104.496 147.536 102.811 148.695 101.45C149.23 100.78 149.81 100.369 150.479 100.153C151.75 99.7645 152.709 98.9868 153.601 98.2307C153.98 97.8851 154.314 97.7339 154.671 97.7339C154.783 97.7339 154.916 97.7555 155.028 97.7987C155.407 97.8851 155.429 98.0363 155.407 98.274C155.362 98.4036 155.34 98.5332 155.318 98.6628C155.295 98.8788 155.251 99.0949 155.184 99.3109C154.649 101.126 154.448 102.962 154.314 105.165C154.181 107.585 154.114 109.572 154.114 111.43C154.114 114.282 154.537 116.982 155.295 119.466C155.853 121.238 155.608 122.577 154.493 123.83Z" fill="#F4F4F4"/>
<path d="M150.099 90.6487C148.805 92.9385 149.028 94.6236 150.879 96.4598C150.968 96.5678 150.991 96.611 151.013 96.6326C150.991 96.6326 150.968 96.6758 150.857 96.7622C150.567 96.9566 150.232 97.1295 149.809 97.2807C146.955 98.296 144.569 100.111 142.562 101.731C139.195 104.474 136.341 107.715 134 110.502C132.484 112.316 130.811 113.98 129.228 115.492C128.002 116.658 127.065 117.825 126.329 119.035C125.906 119.726 125.371 120.028 124.612 119.942C122.539 119.748 122.093 119.531 121.625 117.63C121.357 116.421 121.29 115.189 121.268 113.72C121.179 111.776 121.892 109.616 122.539 107.952C124.256 103.459 127.199 99.3113 131.547 95.2284C135.204 91.8152 138.861 89.3525 142.74 87.6459C145.327 86.5225 147.557 85.9393 149.742 85.8096C149.987 85.8096 150.232 85.8096 150.478 85.68C150.701 85.572 150.901 85.5288 151.124 85.5288C151.548 85.5288 151.972 85.7448 152.529 86.2417C152.819 86.5009 153.153 86.7818 153.176 86.8898C153.176 86.9762 152.797 87.3434 152.551 87.5811C151.548 88.51 150.723 89.5469 150.099 90.6487Z" fill="white"/>
<path d="M150.748 82.5479C150.302 82.8935 149.744 82.9583 149.142 83.0231H148.964C147.738 83.1959 146.712 83.4552 145.798 83.8008C144.549 84.2977 143.3 84.7729 142.052 85.2482C141.093 85.6155 140.112 86.0043 139.131 86.3716C138.93 86.458 138.796 86.4796 138.685 86.4364C137.146 85.7451 135.474 85.5939 133.891 85.5506C131.951 85.5074 130.501 84.3841 129.32 83.3472C129.297 83.3472 129.253 83.304 129.231 83.304C128.584 82.6559 126.8 81.8998 125.373 81.3381C125.351 81.3381 125.306 81.3165 125.284 81.3165C124.726 81.1869 124.147 81.0141 123.612 80.7548C122.786 80.366 121.895 79.9987 120.869 79.6315C120.557 79.5235 120.356 79.3939 120.311 79.2643C120.245 79.1346 120.311 78.897 120.468 78.5946C121.07 77.428 122.073 76.5207 123.723 75.6566C124.704 75.1597 125.819 74.8789 126.8 74.8789H127.068C128.249 74.8789 129.008 75.0301 129.676 75.419C130.992 76.1535 132.441 76.4559 133.846 76.7151L134.27 76.8015C135.318 77.0176 136.321 77.4496 137.28 77.8601C137.57 77.9897 137.882 78.1193 138.172 78.2273C141.806 79.7395 145.731 80.582 149.834 80.7548H150.034C150.034 80.7548 150.19 80.7548 150.235 80.7764C150.413 80.8197 150.614 80.798 150.77 80.7764C151.082 80.7548 151.104 80.7764 151.171 80.9061C151.372 81.4677 151.171 82.2238 150.748 82.5479Z" fill="#EFEDE4"/>
<path d="M197.708 34.2208C197.708 34.9769 197.552 35.6898 197.262 36.3595C195.88 39.4487 194.876 42.7107 193.918 45.8647C193.717 46.4912 193.538 47.1177 193.338 47.7441C191.844 52.5183 189.971 58.135 187.496 63.4277C186.492 65.5448 185.534 67.4242 183.928 68.9364C183.348 69.4981 182.68 70.1246 181.921 70.5782C180.873 71.1831 179.825 71.9176 178.822 72.7817C178.332 73.1921 177.752 73.2786 177.105 73.365C177.172 73.1273 177.284 72.9113 177.373 72.6953C178.198 70.751 177.863 69.4117 176.146 68.0939C175.098 67.273 173.917 66.4305 172.378 66.2577C171.932 66.1929 171.598 65.8688 171.308 65.1991C170.594 63.5789 170.416 61.9155 170.773 60.2953C171.531 56.9037 173.158 53.8145 175.589 51.1142C175.946 50.7469 176.236 50.3365 176.481 49.926C176.659 49.6668 176.86 49.4508 177.083 49.3427C177.127 49.2995 177.172 49.2563 177.194 49.2131L179.513 46.448C179.625 46.3184 179.759 46.1887 179.892 46.0591L182.925 43.2292C183.549 42.5595 184.218 41.933 184.887 41.3281C185.623 40.6801 186.359 39.9888 187.028 39.2543C187.875 38.3254 188.744 37.418 189.614 36.5323C189.971 36.1651 190.328 35.7762 190.684 35.409C191.532 34.5233 192.201 33.5728 192.713 32.6006C193.249 31.5637 194.965 30.5916 196.214 30.6564C196.393 30.678 196.482 30.7428 196.616 30.9588C197.351 32.0606 197.708 33.1191 197.708 34.2208Z" fill="white"/>
<path d="M175.963 46.8168C174.425 48.4802 172.507 50.5541 171.102 52.8656C169.296 55.8684 168.293 58.4823 167.958 61.0746C167.713 62.9324 167.981 64.6607 168.783 66.1513C168.828 66.2161 168.85 66.2809 168.85 66.3241H168.716C168.404 66.3025 168.114 66.3457 167.802 66.3673C167.646 66.3889 167.512 66.3889 167.289 66.4321C167.156 66.4537 167.089 66.4537 167.089 66.4537C167.089 66.4537 167.044 66.3673 167.044 66.1296C167.044 64.3582 166.732 62.63 166.085 60.837C165.149 58.2663 164.792 55.5443 164.569 53.2112C164.48 52.2391 164.502 51.2022 164.547 50.23C164.547 49.7116 164.569 49.1931 164.569 48.6746C164.614 48.3938 164.814 47.0328 165.037 45.8015L165.149 45.1318C165.595 42.8635 165.996 40.7248 167.49 38.9318C168.427 37.8085 169.564 36.9228 170.879 36.3179C171.303 36.1019 171.972 35.9506 172.775 36.858C173.332 37.506 173.8 38.2621 174.135 39.1478C174.715 40.66 175.272 42.1722 175.829 43.706L176.298 45.0238C176.588 45.7583 176.498 46.2767 175.963 46.8168Z" fill="#F4F4F4"/>
<path d="M164.596 65.9363C164.529 67.1245 163.971 67.9886 162.968 68.4854C160.671 69.652 160.537 71.7042 160.649 73.13V73.2596C160.671 73.4757 160.693 73.6917 160.693 73.7349C160.627 73.7781 160.337 73.8429 160.114 73.8645C157.616 74.2966 155.677 74.9663 153.96 76.0032C153.581 76.2192 153.291 76.4784 153.068 76.7809C152.599 77.4722 151.886 77.8394 150.905 77.8826C149.099 77.969 147.471 77.8178 145.955 77.3858C145.308 77.1913 144.684 77.0185 144.037 76.8457C142.699 76.4784 141.317 76.0896 139.979 75.6575C137.682 74.8798 135.363 73.6053 132.911 71.7691L131.528 70.7537C129.388 69.1551 127.158 67.4917 125.084 65.7419C124.393 65.1586 123.769 64.4673 123.189 63.6896C122.877 63.3008 122.765 62.9767 122.854 62.7175C122.921 62.4583 123.211 62.2206 123.702 62.0046C125.731 61.2053 127.916 60.7517 130.235 60.7085C130.391 60.7085 130.525 60.6869 130.681 60.6869C133.111 60.6869 135.653 61.2053 138.641 62.2423C139.109 62.4151 139.578 62.5879 140.046 62.7391C141.317 63.1712 142.632 63.6032 143.859 64.2297C145.509 65.029 147.003 66.1307 148.43 67.1893C148.742 67.4269 149.032 67.6429 149.344 67.859C149.634 68.075 149.946 68.3126 150.258 68.5286C150.86 69.0039 151.507 69.4792 152.176 69.9112C153.469 70.7753 154.874 71.229 156.345 71.2722H157.17C157.795 71.3154 158.441 71.3154 159.088 71.3154C159.489 71.3154 159.802 71.1426 159.958 70.8617C160.114 70.6025 160.091 70.2353 159.868 69.8896C159.556 69.3495 159.021 69.0255 158.419 69.0039C154.985 68.8095 152.711 66.7788 150.749 64.6186C149.322 63.0416 148.229 61.1837 147.203 59.3691L147.003 59.0667C145.665 56.7552 144.149 54.4653 142.699 52.2618C142.253 51.5921 141.807 50.9224 141.361 50.2311C140.759 49.3022 140.291 48.3733 139.979 47.466C139.31 45.4353 138.396 43.4695 137.504 41.5901C137.17 40.8988 136.835 40.1859 136.523 39.4946C135.965 38.2632 135.497 36.9887 135.051 35.7357L134.65 34.5692C134.159 33.2514 133.847 31.9336 133.513 30.4431C133.156 28.8229 132.978 27.0946 133.022 25.1504C133.044 24.7615 133.111 24.4375 133.223 24.1351C133.379 23.811 133.468 23.7462 133.535 23.7246C133.58 23.7246 133.691 23.7246 133.981 23.8974C134.806 24.3943 135.564 25.0208 136.3 25.604C136.567 25.8201 136.835 26.0361 137.103 26.2521C141.807 29.9894 145.264 33.0354 148.251 36.1894C150.793 38.8249 153.335 41.7845 156.256 45.4785C159.489 49.5831 161.318 54.206 162.7 58.2025C162.879 58.721 163.057 59.2395 163.258 59.7363C163.748 61.0325 164.261 62.3719 164.462 63.7544C164.551 64.4457 164.64 65.1802 164.596 65.9363Z" fill="white"/>
<path d="M91.742 209.186C89.852 208.682 88.592 207.674 87.818 206.378C87.08 207.818 85.802 208.952 83.858 209.474L82.76 207.62C85.37 206.9 86.54 205.208 86.594 203.426H83.354V201.554H86.594V199.916H88.97V201.554H92.246V203.426H88.97C89.024 205.028 90.176 206.738 92.804 207.35L91.742 209.186ZM98.132 205.64H95.936V209.402H93.56V199.97H95.936V203.678H98.132V205.64ZM91.976 211.994C92.408 213.182 94.028 214.37 96.854 214.712L96.008 216.512C93.326 216.17 91.544 215.162 90.608 213.722C89.654 215.162 87.854 216.152 85.172 216.494L84.326 214.694C87.26 214.352 88.772 213.236 89.204 211.994H85.046V210.122H96.152V211.994H91.976ZM106.393 205.856C102.487 205.856 100.399 204.902 100.399 203.03C100.399 201.212 102.487 200.204 106.393 200.204C110.335 200.204 112.405 201.212 112.405 203.03C112.405 204.902 110.335 205.856 106.393 205.856ZM106.393 201.95C103.999 201.95 102.865 202.292 102.865 203.03C102.865 203.804 103.999 204.128 106.393 204.128C108.859 204.128 109.939 203.804 109.939 203.03C109.939 202.292 108.859 201.95 106.393 201.95ZM113.881 208.502H98.9046V206.648H113.881V208.502ZM112.495 214.64V216.422H100.633V212.066H109.723V211.184H100.615V209.438H112.063V213.704H102.991V214.64H112.495ZM132.015 207.764C129.117 207.332 127.065 206 125.985 204.2C124.905 206 122.835 207.332 119.937 207.764L119.037 205.856C122.835 205.334 124.707 203.192 124.707 201.248V200.456H127.245V201.248C127.245 203.192 129.171 205.334 132.915 205.856L132.015 207.764ZM127.101 210.914V216.566H124.725V210.914H118.479V208.988H133.455V210.914H127.101ZM146.856 205.442C146.424 207.224 144.678 208.412 142.59 208.412C140.106 208.412 138.234 206.792 138.234 204.488C138.234 202.22 140.106 200.582 142.59 200.582C144.696 200.582 146.406 201.734 146.838 203.516H149.502V199.97H151.878V208.736H149.502V205.442H146.856ZM140.502 204.488C140.502 205.73 141.366 206.45 142.59 206.45C143.814 206.45 144.696 205.73 144.696 204.488C144.696 203.264 143.814 202.544 142.59 202.544C141.366 202.544 140.502 203.264 140.502 204.488ZM150.798 210.788C150.798 212.516 151.572 214.046 153.606 214.766L152.436 216.53C151.05 216.026 150.15 215.09 149.592 213.938C149.034 215.09 148.188 216.008 146.82 216.53L145.884 215.108V216.35H139.836V209.69H142.032V211.31H143.706V209.69H145.884V214.658C147.702 213.794 148.458 212.3 148.458 210.788V209.546H150.798V210.788ZM142.032 213.02V214.586H143.706V213.02H142.032ZM155.891 206.342V200.564H158.267V204.452H167.393V206.342H155.891ZM169.049 209.942H154.037V208.034H169.049V209.942ZM167.483 214.298V216.206H155.729V211.256H158.123V214.298H167.483ZM187.975 216.566H185.725V199.97H187.975V216.566ZM184.645 200.312V215.792H182.431V208.088H180.847V206.018H182.431V200.312H184.645ZM180.199 210.608C180.649 210.554 181.081 210.518 181.495 210.464L181.657 212.174C179.083 212.75 175.753 212.786 173.683 212.786L173.431 210.86H174.727V203.732H173.719V201.842H181.261V203.732H180.199V210.608ZM176.851 210.806C177.265 210.806 177.679 210.788 178.075 210.752V203.732H176.851V210.806ZM203.346 216.584H200.97V199.952H203.346V216.584ZM194.436 201.122C196.938 201.122 198.792 203.39 198.792 207.026C198.792 210.68 196.938 212.966 194.436 212.966C191.934 212.966 190.08 210.68 190.08 207.026C190.08 203.39 191.934 201.122 194.436 201.122ZM194.436 203.264C193.212 203.264 192.366 204.56 192.366 207.026C192.366 209.492 193.212 210.806 194.436 210.806C195.66 210.806 196.506 209.492 196.506 207.026C196.506 204.56 195.66 203.264 194.436 203.264ZM219.365 216.548H216.989V199.97H219.365V216.548ZM212.039 204.434C212.039 207.134 213.371 209.996 216.143 211.148L214.847 213.02C212.903 212.174 211.607 210.608 210.869 208.574C210.131 210.752 208.799 212.552 206.855 213.434L205.505 211.544C208.295 210.302 209.627 207.26 209.627 204.434V203.516H206.171V201.554H215.459V203.516H212.039V204.434ZM235.419 208.88H233.025V199.97H235.419V208.88ZM226.401 200.654C228.975 200.654 230.901 202.292 230.901 204.56C230.901 206.864 228.975 208.484 226.401 208.484C223.827 208.484 221.883 206.864 221.883 204.56C221.883 202.292 223.827 200.654 226.401 200.654ZM226.401 202.616C225.105 202.616 224.205 203.336 224.205 204.56C224.205 205.802 225.105 206.522 226.401 206.522C227.697 206.522 228.579 205.802 228.579 204.56C228.579 203.336 227.697 202.616 226.401 202.616ZM226.761 211.148H233.061V209.6H235.419V216.35H224.403V209.6H226.761V211.148ZM233.061 214.478V212.966H226.761V214.478H233.061ZM251.51 216.53H249.134V199.952H251.51V216.53ZM240.89 210.428C243.068 210.374 245.39 210.194 247.856 209.708L248.108 211.688C245.282 212.282 242.546 212.462 240.008 212.462H238.532V201.536H240.89V210.428ZM266.664 208.052V216.584H264.288V199.97H266.664V206.09H269.076V208.052H266.664ZM256.692 210.626C259.05 210.608 261.012 210.464 263.154 210.104L263.388 212.066C260.886 212.498 258.618 212.606 255.738 212.606H254.316V201.5H262.056V203.426H256.692V210.626ZM270.101 215.252V212.696H272.729V215.252H270.101Z" fill="#8D8D8D"/>
<path d="M24.3951 253.426H12.9851V252.474H15.7851V249.086C14.7211 248.54 14.1051 247.63 14.1051 246.496C14.1051 244.55 16.0091 243.276 18.6691 243.276C21.3431 243.276 23.2331 244.55 23.2331 246.496C23.2331 247.63 22.6451 248.526 21.5811 249.072V252.474H24.3951V253.426ZM18.6691 244.172C16.6531 244.172 15.2111 245.096 15.2111 246.496C15.2111 247.896 16.6531 248.82 18.6691 248.82C20.6851 248.82 22.1411 247.896 22.1411 246.496C22.1411 245.096 20.6851 244.172 18.6691 244.172ZM20.4331 252.474V249.52C19.8311 249.646 19.2431 249.716 18.6691 249.716C18.0531 249.716 17.4791 249.646 16.9331 249.52V252.474H20.4331ZM32.36 249.562C30.904 249.114 29.77 248.19 29.196 246.958C28.65 248.358 27.558 249.394 26.046 249.884L25.486 249.002C27.32 248.372 28.594 246.846 28.594 245.152V244.914H25.808V243.99H28.594V242.422H29.742V243.99H32.514V244.914H29.742V245.152C29.742 246.72 31.044 248.12 32.892 248.68L32.36 249.562ZM34.642 242.478H35.804V250.094H34.642V247H32.136V246.048H34.642V242.478ZM31.646 250.416C34.264 250.416 35.846 251.256 35.846 252.712C35.846 254.182 34.264 255.022 31.646 255.022C29.07 255.022 27.474 254.182 27.474 252.712C27.474 251.256 29.07 250.416 31.646 250.416ZM31.646 254.126C33.564 254.126 34.698 253.608 34.698 252.712C34.698 251.816 33.564 251.312 31.646 251.312C29.728 251.312 28.622 251.816 28.622 252.712C28.622 253.608 29.728 254.126 31.646 254.126ZM47.5909 248.61V255.036H46.4429V242.492H47.5909V247.644H49.6489V248.61H47.5909ZM45.2529 244.494V245.418H37.8469V244.494H41.0109V242.632H42.1589V244.494H45.2529ZM41.5989 246.454C43.3909 246.454 44.6649 247.672 44.6649 249.352C44.6649 251.074 43.3909 252.236 41.5989 252.236C39.8349 252.236 38.5609 251.074 38.5609 249.352C38.5609 247.672 39.8349 246.454 41.5989 246.454ZM41.5989 251.284C42.7609 251.284 43.5729 250.472 43.5729 249.352C43.5729 248.232 42.7609 247.406 41.5989 247.406C40.4649 247.406 39.6389 248.232 39.6389 249.352C39.6389 250.472 40.4649 251.284 41.5989 251.284ZM59.5318 251.69V242.478H60.6798V251.69H59.5318ZM57.3338 249.646C55.8778 249.1 54.7998 247.994 54.2398 246.538C53.6938 248.064 52.5738 249.282 51.1038 249.898L50.5018 248.96C52.4058 248.246 53.6518 246.412 53.6518 244.452V243.178H54.7998V244.452C54.7998 246.342 56.0878 248.064 57.9358 248.736L57.3338 249.646ZM61.0578 254.756H52.6018V250.836H53.7498V253.818H61.0578V254.756ZM76.2696 255.036H75.1636V242.492H76.2696V255.036ZM73.8196 242.786V254.378H72.7416V248.274H71.0336V247.266H72.7416V242.786H73.8196ZM70.3616 250.822C70.8096 250.78 71.2716 250.738 71.6776 250.682L71.7476 251.522C69.8016 251.9 67.1556 251.942 65.5316 251.942L65.4196 250.99H66.0216C66.2316 250.99 66.4556 250.99 66.6936 250.976V244.998H65.6576V244.074H71.3976V244.998H70.3616V250.822ZM67.7436 250.948C68.2616 250.934 68.7656 250.934 69.3116 250.892V244.998H67.7436V250.948ZM88.2805 255.064H87.1325V242.478H88.2805V255.064ZM81.6585 243.444C83.5205 243.444 84.8505 245.152 84.8505 247.826C84.8505 250.5 83.5205 252.208 81.6585 252.208C79.7965 252.208 78.4665 250.5 78.4665 247.826C78.4665 245.152 79.7965 243.444 81.6585 243.444ZM81.6585 244.48C80.4265 244.48 79.5585 245.796 79.5585 247.826C79.5585 249.87 80.4265 251.186 81.6585 251.186C82.8765 251.186 83.7445 249.87 83.7445 247.826C83.7445 245.796 82.8765 244.48 81.6585 244.48ZM100.739 255.036H99.5914V242.492H100.739V255.036ZM94.9434 246.314C94.9434 248.442 96.4554 250.612 98.3034 251.396L97.6594 252.32C96.2034 251.648 94.9714 250.206 94.3694 248.484C93.8094 250.304 92.5354 251.928 91.1354 252.628L90.4634 251.704C92.2694 250.836 93.7954 248.484 93.7954 246.314V244.718H90.8834V243.766H97.8974V244.718H94.9434V246.314ZM112.582 248.526V255.036H111.434V242.478H112.582V247.574H114.598V248.526H112.582ZM109.334 243.822C109.334 247.392 107.696 250.64 103.636 252.656L103.006 251.76C106.268 250.122 107.934 247.798 108.2 244.774H103.594V243.822H109.334ZM127.752 248.526V255.036H126.604V242.492H127.752V247.574H129.824V248.526H127.752ZM122.306 245.824C122.306 248.022 123.748 250.304 125.498 251.2L124.784 252.11C123.44 251.396 122.306 249.94 121.746 248.204C121.2 250.066 120.038 251.578 118.624 252.362L117.938 251.438C119.744 250.5 121.172 248.106 121.172 245.824V243.57H122.306V245.824ZM140.225 248.428V255.05H139.077V242.464H140.225V247.462H142.283V248.428H140.225ZM132.189 251.06C134.471 251.06 136.095 250.99 137.971 250.612L138.097 251.564C136.123 251.9 134.457 252.012 132.063 252.012H131.069V247.21H135.577V244.578H131.027V243.64H136.711V248.148H132.189V251.06ZM152.194 242.478H153.356V249.828H152.194V247.854H149.912V246.93H152.194V245.782H149.912V244.858H152.194V242.478ZM149.842 249.59C148.428 249.072 147.364 248.078 146.818 246.79C146.272 248.246 145.18 249.324 143.668 249.87L143.066 248.96C144.97 248.288 146.216 246.72 146.216 244.9V244.256H143.43V243.318H150.122V244.256H147.378V244.886C147.378 246.524 148.624 248.064 150.416 248.694L149.842 249.59ZM151.998 250.864C151.998 252.152 152.908 253.482 154.518 254.042L153.944 254.882C152.712 254.434 151.858 253.566 151.424 252.502C151.032 253.524 150.276 254.49 149.1 254.994C147.868 254.504 147.14 253.608 146.762 252.544C146.314 253.552 145.46 254.434 144.284 254.882L143.696 254.042C145.292 253.44 146.23 252.096 146.23 250.864V250.22H147.336V250.864C147.336 251.998 147.91 253.188 149.086 253.874C150.29 253.118 150.864 251.844 150.864 250.864V250.22H151.998V250.864ZM165.801 255.036H164.653V248.456H161.713V247.518H164.653V242.492H165.801V255.036ZM161.741 243.836C161.741 247.406 160.271 250.584 156.085 252.642L155.455 251.746C158.829 250.094 160.369 247.7 160.593 244.76H156.015V243.836H161.741ZM177.588 248.442V255.036H176.44V242.478H177.588V247.49H179.604V248.442H177.588ZM169.566 250.892C171.372 250.892 173.234 250.738 175.264 250.332L175.404 251.284C173.262 251.718 171.344 251.858 169.426 251.858H168.432V243.696H169.566V250.892ZM181.703 252.222L180.849 255.05H179.925L180.429 252.222H181.703ZM196.936 246.16H195.074V248.946H193.926V242.492H195.074V245.208H196.936V246.16ZM192.134 248.736C190.678 248.302 189.572 247.378 189.012 246.202C188.466 247.546 187.304 248.568 185.778 249.058L185.218 248.162C187.122 247.602 188.41 246.09 188.41 244.466V244.116H185.61V243.178H192.33V244.116H189.572V244.452C189.572 245.95 190.818 247.308 192.652 247.826L192.134 248.736ZM195.536 254.028V254.91H187.136V251.718H193.94V250.43H187.094V249.548H195.074V252.572H188.256V254.028H195.536ZM209.143 249.618H197.775V248.694H202.899V247.238H199.245V242.996H207.687V247.238H204.047V248.694H209.143V249.618ZM206.553 246.314V243.906H200.365V246.314H206.553ZM204.061 250.808C204.061 252.488 205.979 253.72 208.261 254.056L207.827 254.952C205.867 254.616 204.257 253.748 203.473 252.39C202.717 253.748 201.009 254.616 199.091 254.952L198.657 254.056C200.939 253.72 202.885 252.488 202.885 250.808V250.43H204.061V250.808ZM219.376 251.872V242.478H220.524V251.872H219.376ZM218.452 249.828C215.792 250.206 212.81 250.29 210.472 250.29L210.304 249.352C211.424 249.352 212.614 249.338 213.846 249.296V247.518H211.424V243.29H217.402V244.228H212.572V246.594H217.486V247.518H214.994V249.254C216.17 249.198 217.29 249.128 218.368 249.002L218.452 249.828ZM220.944 254.756H212.404V251.256H213.552V253.818H220.944V254.756ZM231.465 245.726C230.611 247.784 228.805 249.198 226.047 249.996L225.585 249.086C228.609 248.19 230.429 246.552 230.653 244.354H226.229V243.43H231.899C231.899 243.892 231.857 244.354 231.759 244.788H234.601V242.492H235.763V249.996H234.601V248.344H231.311V247.406H234.601V245.726H231.465ZM231.661 250.136C234.195 250.136 235.819 251.046 235.819 252.558C235.819 254.07 234.195 254.98 231.661 254.98C229.127 254.98 227.503 254.07 227.503 252.558C227.503 251.046 229.127 250.136 231.661 250.136ZM231.661 254.084C233.509 254.084 234.685 253.51 234.685 252.558C234.685 251.606 233.523 251.046 231.661 251.046C229.799 251.046 228.637 251.606 228.637 252.558C228.637 253.51 229.813 254.084 231.661 254.084ZM249.272 253.482H237.862V252.544H242.972V250.178H239.29V246.3H246.738V244.34H239.262V243.402H247.858V247.224H240.424V249.254H248.152V250.178H244.134V252.544H249.272V253.482ZM251.763 243.654V242.842H260.261V245.46H252.925V246.538H260.485V247.364H251.791V244.676H259.127V243.654H251.763ZM261.717 249.184H250.335V248.316H261.717V249.184ZM260.695 254.042V254.868H251.721V252.082H259.169V251.032H251.693V250.206H260.303V252.88H252.855V254.042H260.695ZM275.781 255.064H274.633V242.478H275.781V255.064ZM269.159 243.444C271.021 243.444 272.351 245.152 272.351 247.826C272.351 250.5 271.021 252.208 269.159 252.208C267.297 252.208 265.967 250.5 265.967 247.826C265.967 245.152 267.297 243.444 269.159 243.444ZM269.159 244.48C267.927 244.48 267.059 245.796 267.059 247.826C267.059 249.87 267.927 251.186 269.159 251.186C270.377 251.186 271.245 249.87 271.245 247.826C271.245 245.796 270.377 244.48 269.159 244.48ZM289.318 249.618H277.95V248.694H280.764V246.93C279.742 246.524 279.224 245.894 279.224 245.04C279.224 243.584 280.918 242.702 283.634 242.702C286.364 242.702 288.044 243.584 288.044 245.04C288.044 245.88 287.484 246.524 286.518 246.916V248.694H289.318V249.618ZM280.4 245.04C280.4 245.936 281.604 246.482 283.634 246.482C285.664 246.482 286.868 245.936 286.868 245.04C286.868 244.13 285.664 243.598 283.634 243.598C281.604 243.598 280.4 244.13 280.4 245.04ZM285.384 248.694V247.224C284.894 247.322 284.306 247.364 283.634 247.364C283.004 247.364 282.416 247.322 281.898 247.224V248.694H285.384ZM283.634 250.556C286.336 250.556 287.932 251.354 287.932 252.796C287.932 254.238 286.336 255.022 283.634 255.022C280.946 255.022 279.336 254.238 279.336 252.796C279.336 251.354 280.946 250.556 283.634 250.556ZM283.634 254.14C285.608 254.14 286.77 253.65 286.77 252.796C286.77 251.942 285.608 251.452 283.634 251.452C281.66 251.452 280.498 251.942 280.498 252.796C280.498 253.65 281.66 254.14 283.634 254.14ZM300.097 248.61V255.036H298.949V242.492H300.097V247.644H302.155V248.61H300.097ZM297.759 244.494V245.418H290.353V244.494H293.517V242.632H294.665V244.494H297.759ZM294.105 246.454C295.897 246.454 297.171 247.672 297.171 249.352C297.171 251.074 295.897 252.236 294.105 252.236C292.341 252.236 291.067 251.074 291.067 249.352C291.067 247.672 292.341 246.454 294.105 246.454ZM294.105 251.284C295.267 251.284 296.079 250.472 296.079 249.352C296.079 248.232 295.267 247.406 294.105 247.406C292.971 247.406 292.145 248.232 292.145 249.352C292.145 250.472 292.971 251.284 294.105 251.284ZM309.588 247.392V246.454H312.066V244.914H309.588V243.976H312.066V242.478H313.228V249.842H312.066V247.392H309.588ZM309.532 249.366C308.188 248.82 307.138 247.756 306.592 246.356C306.046 247.868 304.982 248.988 303.526 249.59L302.896 248.666C304.8 247.952 306.004 246.202 306.004 244.228V242.926H307.138V244.228C307.138 246.062 308.384 247.756 310.176 248.47L309.532 249.366ZM311.87 250.864C311.87 252.166 312.78 253.468 314.39 254.028L313.816 254.882C312.584 254.42 311.73 253.566 311.296 252.502C310.904 253.524 310.148 254.49 308.972 254.994C307.74 254.504 307.012 253.608 306.634 252.544C306.186 253.552 305.318 254.42 304.142 254.882L303.568 254.028C305.178 253.426 306.102 252.096 306.102 250.864V250.29H307.208V250.864C307.208 251.984 307.782 253.188 308.958 253.874C310.162 253.118 310.736 251.844 310.736 250.864V250.29H311.87V250.864ZM325.687 255.064H324.539V248.204H321.809C321.697 250.668 320.451 252.208 318.701 252.208C316.867 252.208 315.565 250.5 315.565 247.826C315.565 245.152 316.867 243.444 318.701 243.444C320.395 243.444 321.627 244.914 321.809 247.266H324.539V242.478H325.687V255.064ZM318.701 251.186C319.891 251.186 320.731 249.87 320.731 247.826C320.731 245.796 319.891 244.48 318.701 244.48C317.497 244.48 316.657 245.796 316.657 247.826C316.657 249.87 317.497 251.186 318.701 251.186ZM339.195 253.426H327.785V252.474H330.585V249.086C329.521 248.54 328.905 247.63 328.905 246.496C328.905 244.55 330.809 243.276 333.469 243.276C336.143 243.276 338.033 244.55 338.033 246.496C338.033 247.63 337.445 248.526 336.381 249.072V252.474H339.195V253.426ZM333.469 244.172C331.453 244.172 330.011 245.096 330.011 246.496C330.011 247.896 331.453 248.82 333.469 248.82C335.485 248.82 336.941 247.896 336.941 246.496C336.941 245.096 335.485 244.172 333.469 244.172ZM335.233 252.474V249.52C334.631 249.646 334.043 249.716 333.469 249.716C332.853 249.716 332.279 249.646 331.733 249.52V252.474H335.233ZM341.378 252.88V254.196H340.104V252.88H341.378Z" fill="#B8B8B8"/>
</svg>
