<svg width="20" height="20" viewBox="0 0 20 20" fill="none" xmlns="http://www.w3.org/2000/svg">
<path fill-rule="evenodd" clip-rule="evenodd" d="M8.59097 1.87502H11.4088C11.5892 1.8749 11.7463 1.8748 11.8946 1.89849C12.4807 1.99208 12.9879 2.35762 13.262 2.88403C13.3314 3.01727 13.381 3.16634 13.4379 3.33745L13.5309 3.61654C13.5466 3.66378 13.5511 3.67715 13.5549 3.68768C13.7009 4.09111 14.0792 4.36383 14.5081 4.3747C14.5194 4.37498 14.5332 4.37503 14.5832 4.37503H17.0832C17.4284 4.37503 17.7082 4.65485 17.7082 5.00003C17.7082 5.34521 17.4284 5.62503 17.0832 5.62503H2.9165C2.57133 5.62503 2.2915 5.34521 2.2915 5.00003C2.2915 4.65485 2.57133 4.37503 2.9165 4.37503H5.41657C5.46661 4.37503 5.48042 4.37498 5.4917 4.3747C5.92057 4.36383 6.29892 4.09113 6.44486 3.6877C6.44869 3.67709 6.45311 3.66401 6.46893 3.61654L6.56194 3.33747C6.61885 3.16637 6.66844 3.01728 6.73782 2.88403C7.01195 2.35762 7.51911 1.99208 8.10519 1.89849C8.25354 1.8748 8.41065 1.8749 8.59097 1.87502ZM7.50663 4.37503C7.54955 4.29085 7.58759 4.20337 7.62032 4.1129C7.63025 4.08543 7.64 4.05619 7.65252 4.01861L7.73569 3.7691C7.81167 3.54118 7.82916 3.49469 7.84651 3.46137C7.93789 3.2859 8.10694 3.16405 8.3023 3.13285C8.33941 3.12693 8.38903 3.12503 8.62929 3.12503H11.3705C11.6108 3.12503 11.6604 3.12693 11.6975 3.13285C11.8929 3.16405 12.0619 3.2859 12.1533 3.46137C12.1707 3.49469 12.1881 3.54117 12.2641 3.7691L12.3472 4.01846L12.3795 4.11292C12.4122 4.20338 12.4503 4.29085 12.4932 4.37503H7.50663Z" fill="#BBBBBB"/>
<path d="M4.92908 7.04179C4.90612 6.69738 4.6083 6.43679 4.26389 6.45975C3.91948 6.48271 3.65889 6.78053 3.68185 7.12494L4.06805 12.9181C4.1393 13.987 4.19685 14.8505 4.33183 15.528C4.47216 16.2324 4.71084 16.8208 5.20384 17.2821C5.69684 17.7433 6.29979 17.9423 7.012 18.0355C7.69702 18.1251 8.56237 18.125 9.63367 18.125H10.3661C11.4374 18.125 12.3028 18.1251 12.9878 18.0355C13.7 17.9423 14.303 17.7433 14.796 17.2821C15.289 16.8208 15.5277 16.2324 15.668 15.528C15.803 14.8505 15.8605 13.987 15.9318 12.9181L16.318 7.12494C16.3409 6.78053 16.0803 6.48271 15.7359 6.45975C15.3915 6.43679 15.0937 6.69738 15.0707 7.04179L14.6875 12.7911C14.6126 13.9143 14.5592 14.6958 14.4421 15.2838C14.3284 15.8542 14.1698 16.1561 13.942 16.3692C13.7142 16.5824 13.4024 16.7206 12.8257 16.796C12.2312 16.8738 11.4478 16.875 10.3221 16.875H9.67767C8.55197 16.875 7.76863 16.8738 7.17413 16.796C6.59746 16.7206 6.28566 16.5824 6.05782 16.3692C5.82998 16.1561 5.67137 15.8542 5.55774 15.2838C5.4406 14.6958 5.38724 13.9143 5.31236 12.7911L4.92908 7.04179Z" fill="#BBBBBB"/>
<path d="M7.85439 8.5448C8.19785 8.51045 8.50413 8.76104 8.53848 9.10451L8.95515 13.2712C8.98949 13.6146 8.7389 13.9209 8.39544 13.9553C8.05197 13.9896 7.7457 13.739 7.71135 13.3956L7.29468 9.22889C7.26034 8.88542 7.51093 8.57915 7.85439 8.5448Z" fill="#BBBBBB"/>
<path d="M12.1454 8.5448C12.4889 8.57915 12.7395 8.88542 12.7051 9.22889L12.2885 13.3956C12.2541 13.739 11.9479 13.9896 11.6044 13.9553C11.2609 13.9209 11.0103 13.6146 11.0447 13.2712L11.4613 9.10451C11.4957 8.76104 11.802 8.51045 12.1454 8.5448Z" fill="#BBBBBB"/>
</svg>
