<svg width="20" height="20" viewBox="0 0 20 20" fill="none" xmlns="http://www.w3.org/2000/svg">
<path fill-rule="evenodd" clip-rule="evenodd" d="M12.297 2.18462C13.8209 0.66079 16.2915 0.66079 17.8153 2.18462C19.3391 3.70845 19.3391 6.17907 17.8153 7.7029L9.91089 15.6073C9.4593 16.059 9.19345 16.3248 8.89771 16.5555C8.54913 16.8274 8.17196 17.0605 7.77289 17.2507C7.43431 17.412 7.07762 17.5309 6.4717 17.7329L3.69576 18.6582L3.02736 18.881C2.48523 19.0617 1.88752 18.9206 1.48344 18.5165C1.07935 18.1124 0.938256 17.5147 1.11897 16.9726L2.26707 13.5283C2.46903 12.9223 2.58791 12.5656 2.74927 12.227C2.93946 11.828 3.17256 11.4508 3.44445 11.1022C3.67513 10.8065 3.94099 10.5406 4.39264 10.089L12.297 2.18462ZM3.66693 17.3502L6.03486 16.5609C6.69412 16.3411 6.97423 16.2466 7.23511 16.1223C7.55223 15.9711 7.85194 15.7859 8.12894 15.5698C8.35681 15.3921 8.56661 15.1838 9.058 14.6925L15.3659 8.38455C14.7087 8.15276 13.862 7.7231 13.0694 6.9305C12.2768 6.1379 11.8472 5.29124 11.6154 4.63404L5.30748 10.9419C4.8161 11.4333 4.60783 11.6431 4.43009 11.871C4.21404 12.148 4.02881 12.4477 3.87768 12.7648C3.75334 13.0257 3.65884 13.3058 3.43908 13.9651L2.64977 16.333L3.66693 17.3502ZM12.6293 3.62012C12.6578 3.76592 12.706 3.96412 12.7864 4.19581C12.9673 4.71744 13.3092 5.40248 13.9533 6.04662C14.5975 6.69076 15.2825 7.03261 15.8041 7.21358C16.0358 7.29396 16.234 7.34213 16.3798 7.37063L16.9314 6.81902C17.9671 5.78334 17.9671 4.10418 16.9314 3.0685C15.8958 2.03283 14.2166 2.03283 13.1809 3.0685L12.6293 3.62012Z" fill="#BBBBBB"/>
</svg>
