<svg width="24" height="24" viewBox="0 0 24 24" fill="none" xmlns="http://www.w3.org/2000/svg">
<path d="M2.46143 21.5385L4.02683 16.2231C3.71016 15.5526 3.45983 14.8653 3.27585 14.1613C3.09188 13.4572 2.9999 12.7368 2.9999 12C2.9999 10.755 3.23606 9.585 3.70838 8.49C4.18071 7.395 4.82173 6.4425 5.63143 5.6325C6.44113 4.8225 7.39327 4.18125 8.48785 3.70875C9.58245 3.23625 10.752 3 11.9966 3C13.2411 3 14.4112 3.23616 15.5068 3.70847C16.6024 4.18081 17.5555 4.82182 18.3659 5.63152C19.1764 6.44122 19.818 7.39337 20.2908 8.48795C20.7635 9.58255 20.9999 10.7521 20.9999 11.9966C20.9999 13.2412 20.7637 14.4113 20.2912 15.5069C19.8187 16.6025 19.1774 17.5556 18.3674 18.366C17.5574 19.1765 16.6049 19.8181 15.5099 20.2909C14.4149 20.7636 13.2449 21 11.9999 21C11.2631 21 10.5427 20.908 9.83865 20.7241C9.13462 20.5401 8.44734 20.2897 7.77683 19.9731L2.46143 21.5385ZM3.9499 20.05L7.1499 19.1C7.40887 19.0333 7.64637 19.0019 7.8624 19.0058C8.07843 19.0096 8.3076 19.0744 8.5499 19.2C9.08323 19.4667 9.64157 19.6667 10.2249 19.8C10.8082 19.9333 11.3999 20 11.9999 20C14.2332 20 16.1249 19.225 17.6749 17.675C19.2249 16.125 19.9999 14.2333 19.9999 12C19.9999 9.76667 19.2249 7.875 17.6749 6.325C16.1249 4.775 14.2332 4 11.9999 4C9.76657 4 7.8749 4.775 6.3249 6.325C4.7749 7.875 3.9999 9.76667 3.9999 12C3.9999 12.6 4.06657 13.1917 4.1999 13.775C4.33323 14.3583 4.53323 14.9167 4.7999 15.45C4.91657 15.6667 4.98228 15.8958 4.99703 16.1375C5.01176 16.3792 4.97938 16.6167 4.8999 16.85L3.9499 20.05Z" fill="#8D8D8D"/>
</svg>
