<svg width="208" height="201" viewBox="0 0 208 201" fill="none" xmlns="http://www.w3.org/2000/svg">
<path d="M2.71274 149.396V143.42H14.0887V145.31H5.07074V147.524H14.1787V149.396H2.71274ZM15.8887 152.492H0.894737V150.548H15.8887V152.492ZM8.32874 153.446C11.9107 153.446 14.0887 154.544 14.0887 156.506C14.0887 158.45 11.9107 159.548 8.32874 159.548C4.74674 159.548 2.58674 158.45 2.58674 156.506C2.58674 154.544 4.74674 153.446 8.32874 153.446ZM8.32874 157.748C10.5787 157.748 11.6767 157.37 11.6767 156.506C11.6767 155.66 10.5607 155.246 8.32874 155.246C6.09674 155.246 4.98074 155.66 4.98074 156.506C4.98074 157.37 6.07874 157.748 8.32874 157.748ZM31.9073 153.734H16.8953V151.844H23.2133V150.656H18.7673V146.102H27.7313V145.094H18.7313V143.294H30.0713V147.776H21.1073V148.856H30.4133V150.656H25.5893V151.844H31.9073V153.734ZM30.1793 154.67V159.494H27.8033V156.542H18.5513V154.67H30.1793ZM44.3259 155.444V142.952H46.7199V155.444H44.3259ZM43.4979 152.996C40.0599 153.482 36.7659 153.572 33.2919 153.572L32.9859 151.682C34.2999 151.682 35.7399 151.7 37.1979 151.646V149.936H34.3539V143.96H42.3639V145.85H36.7299V148.046H42.4719V149.936H39.5739V151.556C40.8699 151.502 42.1119 151.43 43.3359 151.304L43.4979 152.996ZM47.1519 159.26H35.4879V154.544H37.8819V157.37H47.1519V159.26ZM62.8566 149.27C63.2346 147.758 63.2886 146.678 63.2886 145.58H54.1806V143.708H65.6646V145.076C65.6646 146.39 65.6466 147.776 65.1966 149.504L62.8566 149.27ZM67.4286 152.258H52.5066V150.386H58.0326V147.488H60.4086V150.386H67.4286V152.258ZM59.8686 153.302C63.4506 153.302 65.7546 154.49 65.7546 156.434C65.7546 158.36 63.4506 159.548 59.8686 159.548C56.3046 159.548 54.0006 158.36 54.0006 156.434C54.0006 154.49 56.3046 153.302 59.8686 153.302ZM59.8686 157.766C62.1186 157.766 63.3966 157.316 63.3966 156.434C63.3966 155.516 62.1186 155.084 59.8686 155.084C57.6186 155.084 56.3586 155.516 56.3586 156.434C56.3586 157.316 57.6186 157.766 59.8686 157.766ZM82.6912 159.548H80.4232V151.124H78.9472V158.846H76.7332V143.402H78.9472V149.216H80.4232V142.97H82.6912V159.548ZM75.6532 145.022C75.6532 149.666 74.2852 153.464 69.6592 156.164L68.2732 154.508C71.5852 152.582 73.0252 150.134 73.3132 146.912H69.1192V145.022H75.6532ZM89.594 146.39V144.5H101.204V146.462C101.204 148.784 101.222 151.052 100.592 154.454L98.234 154.238C98.81 151.07 98.828 148.712 98.828 146.462V146.39H89.594ZM103.04 157.388H88.046V155.444H103.04V157.388ZM105.901 144.986V143.222H117.241V147.488H108.277V148.406H117.547V150.17H105.937V145.832H114.901V144.986H105.901ZM119.077 152.852H112.723V154.256H110.347V152.852H104.065V150.998H119.077V152.852ZM117.295 153.572V159.35H105.937V153.572H108.277V154.886H114.937V153.572H117.295ZM108.277 156.596V157.586H114.937V156.596H108.277ZM133.817 159.584H131.441V142.952H133.817V159.584ZM124.907 144.122C127.409 144.122 129.263 146.39 129.263 150.026C129.263 153.68 127.409 155.966 124.907 155.966C122.405 155.966 120.551 153.68 120.551 150.026C120.551 146.39 122.405 144.122 124.907 144.122ZM124.907 146.264C123.683 146.264 122.837 147.56 122.837 150.026C122.837 152.492 123.683 153.806 124.907 153.806C126.131 153.806 126.977 152.492 126.977 150.026C126.977 147.56 126.131 146.264 124.907 146.264ZM148.478 148.442C148.046 150.224 146.3 151.412 144.212 151.412C141.728 151.412 139.856 149.792 139.856 147.488C139.856 145.22 141.728 143.582 144.212 143.582C146.318 143.582 148.028 144.734 148.46 146.516H151.124V142.97H153.5V151.736H151.124V148.442H148.478ZM142.124 147.488C142.124 148.73 142.988 149.45 144.212 149.45C145.436 149.45 146.318 148.73 146.318 147.488C146.318 146.264 145.436 145.544 144.212 145.544C142.988 145.544 142.124 146.264 142.124 147.488ZM152.42 153.788C152.42 155.516 153.194 157.046 155.228 157.766L154.058 159.53C152.672 159.026 151.772 158.09 151.214 156.938C150.656 158.09 149.81 159.008 148.442 159.53L147.506 158.108V159.35H141.458V152.69H143.654V154.31H145.328V152.69H147.506V157.658C149.324 156.794 150.08 155.3 150.08 153.788V152.546H152.42V153.788ZM143.654 156.02V157.586H145.328V156.02H143.654ZM169.05 149.45C166.224 149.108 164.226 147.938 163.146 146.354C162.066 147.938 160.05 149.09 157.224 149.45L156.396 147.614C160.122 147.182 161.922 145.328 161.922 143.654V143.15H164.37V143.654C164.37 145.328 166.17 147.182 169.896 147.614L169.05 149.45ZM170.634 152.078H155.658V150.206H170.634V152.078ZM168.744 152.906V159.35H157.404V152.906H159.762V154.292H166.404V152.906H168.744ZM159.762 156.074V157.514H166.404V156.074H159.762ZM185.519 159.53H183.143V142.952H185.519V159.53ZM174.899 153.428C177.077 153.374 179.399 153.194 181.865 152.708L182.117 154.688C179.291 155.282 176.555 155.462 174.017 155.462H172.541V144.536H174.899V153.428ZM200.674 151.052V159.584H198.298V142.97H200.674V149.09H203.086V151.052H200.674ZM190.702 153.626C193.06 153.608 195.022 153.464 197.164 153.104L197.398 155.066C194.896 155.498 192.628 155.606 189.748 155.606H188.326V144.5H196.066V146.426H190.702V153.626ZM204.11 158.252V155.696H206.738V158.252H204.11Z" fill="#8D8D8D"/>
<path d="M27.802 191.526V198.036H26.654V185.478H27.802V190.574H29.818V191.526H27.802ZM24.554 186.822C24.554 190.392 22.916 193.64 18.856 195.656L18.226 194.76C21.488 193.122 23.154 190.798 23.42 187.774H18.814V186.822H24.554ZM42.2069 189.622H40.3449V193.066H39.1969V185.492H40.3449V188.656H42.2069V189.622ZM37.3349 192.45C35.8789 191.988 34.8429 190.994 34.2969 189.748C33.7509 191.204 32.6449 192.282 31.1329 192.828L30.5449 191.918C32.4489 191.246 33.6949 189.664 33.6949 187.83V187.34H30.8809V186.416H37.6149V187.34H34.8429V187.83C34.8429 189.468 36.0189 190.952 37.8809 191.554L37.3349 192.45ZM36.3549 193.388C38.8889 193.388 40.4849 194.242 40.4849 195.698C40.4849 197.168 38.8889 198.022 36.3549 198.022C33.7789 198.022 32.2109 197.168 32.2109 195.698C32.2109 194.242 33.7789 193.388 36.3549 193.388ZM36.3549 197.112C38.2169 197.112 39.3369 196.594 39.3369 195.698C39.3369 194.802 38.2169 194.298 36.3549 194.298C34.4369 194.298 33.3589 194.802 33.3589 195.698C33.3589 196.594 34.4369 197.112 36.3549 197.112ZM46.3447 192.408V186.584H52.0707V188.978H54.9547V185.492H56.1167V194.648H54.9547V189.916H52.0707V192.408H46.3447ZM47.4787 187.494V191.484H50.9507V187.494H47.4787ZM56.4667 197.756H48.0807V193.808H49.2427V196.818H56.4667V197.756ZM68.5756 198.05H67.4276V190.98H64.7116V190.042H67.4276V185.478H68.5756V198.05ZM62.5696 189.16C62.5696 191.218 64.0396 193.542 65.8596 194.396L65.1736 195.292C63.7876 194.578 62.5556 193.08 61.9956 191.344C61.4356 193.206 60.2316 194.802 58.8036 195.558L58.1316 194.648C59.9236 193.752 61.4216 191.386 61.4216 189.16V187.704H58.5796V186.766H65.4256V187.704H62.5696V189.16ZM74.6314 187.746V186.808H82.7094V186.822H83.2414V188.068C83.2414 189.664 83.2274 191.47 82.7514 194.186L81.6034 194.06C82.1074 191.498 82.1074 189.622 82.1074 188.068V187.746H74.6314ZM84.7674 196.202H73.4134V195.25H84.7674V196.202ZM87.2863 186.626V185.744H95.7843V188.628H88.4483V189.804H96.0503V190.686H87.3143V187.774H94.6503V186.626H87.2863ZM97.2403 192.618H92.1163V194.172H90.9683V192.618H85.8443V191.694H97.2403V192.618ZM95.7843 193.416V197.868H87.3563V193.416H88.5043V194.802H94.6503V193.416H95.7843ZM88.5043 195.67V196.972H94.6503V195.67H88.5043ZM103.987 190.042C101.229 190.042 99.5772 189.286 99.5772 187.872C99.5772 186.458 101.229 185.688 103.987 185.688C106.745 185.688 108.397 186.458 108.397 187.872C108.397 189.286 106.745 190.042 103.987 190.042ZM103.987 186.556C101.901 186.556 100.753 187.032 100.753 187.872C100.753 188.712 101.901 189.188 103.987 189.188C106.073 189.188 107.221 188.712 107.221 187.872C107.221 187.032 106.073 186.556 103.987 186.556ZM109.671 191.82H98.3032V190.896H109.671V191.82ZM108.593 197V197.896H99.7172V194.886H107.081V193.766H99.6752V192.898H108.215V195.726H100.837V197H108.593ZM125.093 190.266H123.231V194.662H122.083V185.464H123.231V189.3H125.093V190.266ZM114.005 192.408V186.598H119.773V192.408H114.005ZM115.125 187.522V191.498H118.653V187.522H115.125ZM123.791 196.818V197.756H115.419V193.808H116.567V196.818H123.791ZM127.458 189.706V185.898H135.83V186.822H128.606V188.782H135.956V189.706H127.458ZM137.314 191.652H125.946V190.714H137.314V191.652ZM136.222 196.986V197.882H127.346V194.844H134.71V193.64H127.304V192.744H135.844V195.698H128.466V196.986H136.222ZM148.751 198.064H147.603V191.204H144.873C144.761 193.668 143.515 195.208 141.765 195.208C139.931 195.208 138.629 193.5 138.629 190.826C138.629 188.152 139.931 186.444 141.765 186.444C143.459 186.444 144.691 187.914 144.873 190.266H147.603V185.478H148.751V198.064ZM141.765 194.186C142.955 194.186 143.795 192.87 143.795 190.826C143.795 188.796 142.955 187.48 141.765 187.48C140.561 187.48 139.721 188.796 139.721 190.826C139.721 192.87 140.561 194.186 141.765 194.186ZM162.246 196.426H150.864V195.488H155.96V192.786H152.208V186.374H153.342V188.614H159.754V186.374H160.874V192.786H157.122V195.488H162.246V196.426ZM159.754 191.862V189.552H153.342V191.862H159.754ZM173.991 198.036H172.899V185.478H173.991V198.036ZM171.429 185.758V197.42H170.351V190.938H168.279V189.986H170.351V185.758H171.429ZM167.047 189.02C167.047 191.036 167.999 193.164 169.637 194.172L168.979 195.068C167.789 194.34 166.949 193.01 166.501 191.484C166.053 193.178 165.143 194.564 163.897 195.348L163.183 194.48C164.905 193.472 165.941 191.232 165.941 189.062V186.668H167.047V189.02ZM187.177 196.426H175.767V195.474H178.567V192.086C177.503 191.54 176.887 190.63 176.887 189.496C176.887 187.55 178.791 186.276 181.451 186.276C184.125 186.276 186.015 187.55 186.015 189.496C186.015 190.63 185.427 191.526 184.363 192.072V195.474H187.177V196.426ZM181.451 187.172C179.435 187.172 177.993 188.096 177.993 189.496C177.993 190.896 179.435 191.82 181.451 191.82C183.467 191.82 184.923 190.896 184.923 189.496C184.923 188.096 183.467 187.172 181.451 187.172ZM183.215 195.474V192.52C182.613 192.646 182.025 192.716 181.451 192.716C180.835 192.716 180.261 192.646 179.715 192.52V195.474H183.215ZM190.158 187.97L189.99 194.494H189.108L188.94 187.97L188.898 186.514H190.2L190.158 187.97ZM188.912 197.182V195.866H190.186V197.182H188.912Z" fill="#B8B8B8"/>
<path d="M79.6411 74.359H101.596V58.6539H79.6411V74.359ZM79.6411 53.8462H101.596V25.6411H79.6411V53.8462ZM106.404 74.359H128.359V46.1539H106.404V74.359ZM106.404 41.3462H128.359V25.6411H106.404V41.3462ZM76.1156 85.4166C74.0109 85.4166 72.2293 84.6875 70.771 83.2291C69.3127 81.7708 68.5835 79.9893 68.5835 77.8845V22.1156C68.5835 20.0109 69.3127 18.2293 70.771 16.771C72.2293 15.3127 74.0109 14.5835 76.1156 14.5835H131.885C133.989 14.5835 135.771 15.3127 137.229 16.771C138.687 18.2293 139.417 20.0109 139.417 22.1156V30.7694H146.788V37.0192H139.417V46.8752H146.788V53.125H139.417V62.9809H146.788V69.2307H139.417V77.8845C139.417 79.9893 138.687 81.7708 137.229 83.2291C135.771 84.6875 133.989 85.4166 131.885 85.4166H76.1156ZM76.1156 79.1667H131.885C132.205 79.1667 132.499 79.0332 132.766 78.7661C133.033 78.4989 133.167 78.2051 133.167 77.8845V22.1156C133.167 21.795 133.033 21.5012 132.766 21.234C132.499 20.9669 132.205 20.8334 131.885 20.8334H76.1156C75.795 20.8334 75.5012 20.9669 75.234 21.234C74.9669 21.5012 74.8334 21.795 74.8334 22.1156V77.8845C74.8334 78.2051 74.9669 78.4989 75.234 78.7661C75.5012 79.0332 75.795 79.1667 76.1156 79.1667Z" fill="#DDDDDD"/>
</svg>
