<svg width="173" height="201" viewBox="0 0 173 201" fill="none" xmlns="http://www.w3.org/2000/svg">
<path d="M15.4204 159.53H13.1704V142.952H15.4204V159.53ZM11.8924 143.33V158.81H9.67839V151.214H7.08639C6.15039 153.104 4.69239 154.742 2.29839 156.11L0.948389 154.436C4.26039 152.474 5.71839 150.08 6.00639 146.822H1.86639V144.932H8.36439C8.36439 146.516 8.23839 147.938 7.82439 149.306H9.67839V143.33H11.8924ZM30.917 159.584H28.541V142.952H30.917V159.584ZM23.609 146.66C23.609 149.738 24.923 152.762 27.731 153.968L26.381 155.894C24.437 155.03 23.195 153.392 22.457 151.358C21.719 153.608 20.423 155.354 18.389 156.29L16.967 154.328C19.865 153.068 21.233 149.9 21.233 146.66V144.248H23.609V146.66ZM44.6136 155.444V142.952H47.0076V155.444H44.6136ZM43.7856 152.996C40.3476 153.482 37.0536 153.572 33.5796 153.572L33.2736 151.682C34.5876 151.682 36.0276 151.7 37.4856 151.646V149.936H34.6416V143.96H42.6516V145.85H37.0176V148.046H42.7596V149.936H39.8616V151.556C41.1576 151.502 42.3996 151.43 43.6236 151.304L43.7856 152.996ZM47.4396 159.26H35.7756V154.544H38.1696V157.37H47.4396V159.26ZM53.5143 150.17C56.9703 149.792 58.7163 148.19 59.0043 146.75H54.1083V144.86H59.0403V143.006H61.4163V144.86H66.3843V146.75H61.4703C61.7583 148.154 63.5403 149.792 66.9603 150.17L66.1143 152.042C63.2883 151.7 61.3263 150.584 60.2463 149.072C59.1663 150.584 57.2403 151.7 54.3423 152.042L53.5143 150.17ZM61.4163 154.814V159.584H59.0403V154.814H52.7763V152.888H67.7523V154.814H61.4163ZM82.6369 152.798H80.2609V148.892H77.6329C77.2009 150.782 75.4729 152.06 73.3489 152.06C70.9009 152.06 68.9929 150.332 68.9929 147.938C68.9929 145.562 70.9009 143.834 73.3489 143.834C75.4369 143.834 77.2009 145.13 77.6329 146.984H80.2609V142.97H82.6369V152.798ZM73.3489 150.026C74.5729 150.026 75.4729 149.252 75.4729 147.938C75.4729 146.624 74.5729 145.868 73.3489 145.868C72.1249 145.868 71.2609 146.624 71.2609 147.938C71.2609 149.252 72.1249 150.026 73.3489 150.026ZM82.6369 153.536V159.566H80.2609V155.408H71.3509V153.536H82.6369ZM98.5295 159.584H96.1535V142.952H98.5295V159.584ZM89.6195 144.122C92.1215 144.122 93.9755 146.39 93.9755 150.026C93.9755 153.68 92.1215 155.966 89.6195 155.966C87.1175 155.966 85.2635 153.68 85.2635 150.026C85.2635 146.39 87.1175 144.122 89.6195 144.122ZM89.6195 146.264C88.3955 146.264 87.5495 147.56 87.5495 150.026C87.5495 152.492 88.3955 153.806 89.6195 153.806C90.8435 153.806 91.6895 152.492 91.6895 150.026C91.6895 147.56 90.8435 146.264 89.6195 146.264ZM113.19 148.442C112.758 150.224 111.012 151.412 108.924 151.412C106.44 151.412 104.568 149.792 104.568 147.488C104.568 145.22 106.44 143.582 108.924 143.582C111.03 143.582 112.74 144.734 113.172 146.516H115.836V142.97H118.212V151.736H115.836V148.442H113.19ZM106.836 147.488C106.836 148.73 107.7 149.45 108.924 149.45C110.148 149.45 111.03 148.73 111.03 147.488C111.03 146.264 110.148 145.544 108.924 145.544C107.7 145.544 106.836 146.264 106.836 147.488ZM117.132 153.788C117.132 155.516 117.906 157.046 119.94 157.766L118.77 159.53C117.384 159.026 116.484 158.09 115.926 156.938C115.368 158.09 114.522 159.008 113.154 159.53L112.218 158.108V159.35H106.17V152.69H108.366V154.31H110.04V152.69H112.218V157.658C114.036 156.794 114.792 155.3 114.792 153.788V152.546H117.132V153.788ZM108.366 156.02V157.586H110.04V156.02H108.366ZM133.763 149.45C130.937 149.108 128.939 147.938 127.859 146.354C126.779 147.938 124.763 149.09 121.937 149.45L121.109 147.614C124.835 147.182 126.635 145.328 126.635 143.654V143.15H129.083V143.654C129.083 145.328 130.883 147.182 134.609 147.614L133.763 149.45ZM135.347 152.078H120.371V150.206H135.347V152.078ZM133.457 152.906V159.35H122.117V152.906H124.475V154.292H131.117V152.906H133.457ZM124.475 156.074V157.514H131.117V156.074H124.475ZM150.231 159.53H147.855V142.952H150.231V159.53ZM139.611 153.428C141.789 153.374 144.111 153.194 146.577 152.708L146.829 154.688C144.003 155.282 141.267 155.462 138.729 155.462H137.253V144.536H139.611V153.428ZM165.386 151.052V159.584H163.01V142.97H165.386V149.09H167.798V151.052H165.386ZM155.414 153.626C157.772 153.608 159.734 153.464 161.876 153.104L162.11 155.066C159.608 155.498 157.34 155.606 154.46 155.606H153.038V144.5H160.778V146.426H155.414V153.626ZM168.823 158.252V155.696H171.451V158.252H168.823Z" fill="#8D8D8D"/>
<path d="M18.8909 192.618C17.4769 192.156 16.3849 191.19 15.8389 190C15.2929 191.358 14.1729 192.436 12.7029 192.94L12.1289 192.044C13.9909 191.442 15.2369 189.86 15.2369 188.152V187.872H12.4509V186.962H15.2369V185.436H16.3849V186.962H19.1569V187.872H16.3849V188.152C16.3849 189.692 17.6169 191.162 19.4509 191.722L18.8909 192.618ZM21.2989 185.478H22.4469V194.172H21.2989V189.972H18.7929V189.034H21.2989V185.478ZM18.9889 193.598C18.9889 195.348 20.9629 196.706 23.2029 197.084L22.7549 197.98C20.8509 197.644 19.1429 196.664 18.4009 195.222C17.6169 196.636 15.9509 197.644 14.0469 197.98L13.5849 197.084C15.8109 196.706 17.8129 195.292 17.8129 193.598V193.332H18.9889V193.598ZM27.9007 192.632V186.318H29.0347V188.53H32.4227V186.318H33.5567V189.02H36.4547V185.478H37.6167V194.774H36.4547V189.958H33.5567V192.632H27.9007ZM29.0347 189.44V191.708H32.4227V189.44H29.0347ZM37.9107 197.756H29.5387V193.864H30.6867V196.818H37.9107V197.756ZM50.5656 198.036H49.4736V191.54H48.1156V197.42H47.0516V185.758H48.1156V190.602H49.4736V185.478H50.5656V198.036ZM45.1196 189.244C45.1196 190.84 45.4136 193.094 46.8556 194.242L46.1976 195.026C45.3576 194.368 44.9236 193.402 44.6436 192.282C44.4196 193.402 44.0136 194.466 43.1736 195.152C42.3336 194.466 41.9136 193.374 41.6896 192.24C41.4096 193.36 40.9756 194.368 40.1356 195.026L39.4776 194.242C40.9196 193.094 41.2136 190.784 41.2136 189.244V187.928H39.8976V186.99H42.9776V187.928H42.2216V189.244C42.2216 190.28 42.2776 192.268 43.1736 193.654C44.0696 192.338 44.1116 190.462 44.1116 189.244V187.928H43.3556V186.99H46.3236V187.928H45.1196V189.244ZM55.6134 191.19C57.8954 190.896 59.9954 189.51 59.9954 187.956H56.0054V187.032H60.0094V185.492H61.1574V187.032H65.1614V187.956H61.1574C61.1574 189.496 63.2714 190.896 65.5254 191.19L65.1194 192.114C63.1874 191.82 61.3814 190.854 60.5834 189.496C59.7854 190.854 57.9794 191.82 56.0334 192.114L55.6134 191.19ZM61.1574 194.004V198.05H60.0094V194.004H54.9134V193.066H66.2674V194.004H61.1574ZM77.7043 192.884H76.5423V189.65H73.9803C73.7563 191.176 72.5103 192.226 70.7883 192.226C68.9263 192.226 67.5543 190.98 67.5543 189.188C67.5543 187.438 68.9263 186.178 70.7883 186.178C72.4823 186.178 73.7423 187.2 73.9663 188.712H76.5423V185.492H77.7043V192.884ZM70.7883 191.246C72.0203 191.246 72.9303 190.378 72.9303 189.188C72.9303 188.012 72.0203 187.158 70.7883 187.158C69.5563 187.158 68.6463 188.012 68.6463 189.188C68.6463 190.378 69.5563 191.246 70.7883 191.246ZM77.7043 193.584V198.05H76.5423V194.508H69.3043V193.584H77.7043ZM85.4872 190.042C82.7292 190.042 81.0772 189.286 81.0772 187.872C81.0772 186.458 82.7292 185.688 85.4872 185.688C88.2452 185.688 89.8972 186.458 89.8972 187.872C89.8972 189.286 88.2452 190.042 85.4872 190.042ZM85.4872 186.556C83.4012 186.556 82.2532 187.032 82.2532 187.872C82.2532 188.712 83.4012 189.188 85.4872 189.188C87.5732 189.188 88.7212 188.712 88.7212 187.872C88.7212 187.032 87.5732 186.556 85.4872 186.556ZM91.1712 191.82H79.8032V190.896H91.1712V191.82ZM90.0932 197V197.896H81.2172V194.886H88.5812V193.766H81.1752V192.898H89.7152V195.726H82.3372V197H90.0932ZM106.327 191.848H94.987V190.924H100.083V189.972C97.605 189.874 96.247 189.104 96.247 187.802C96.247 186.388 97.899 185.618 100.657 185.618C103.471 185.618 105.067 186.388 105.067 187.802C105.067 189.146 103.695 189.874 101.231 189.972V190.924H106.327V191.848ZM97.423 187.802C97.423 188.642 98.571 189.118 100.657 189.118C102.743 189.118 103.891 188.642 103.891 187.802C103.891 186.962 102.743 186.486 100.657 186.486C98.571 186.486 97.423 186.962 97.423 187.802ZM105.263 197V197.896H96.387V194.886H103.751V193.766H96.345V192.898H104.885V195.74H97.507V197H105.263ZM117.778 198.05H116.63V192.716H114.068V191.778H116.63V189.272H114.152V188.334H116.63V185.464H117.778V198.05ZM109.042 194.172C110.876 194.172 112.444 194.088 114.306 193.794L114.404 194.746C112.43 195.04 110.834 195.124 108.86 195.124H107.908V190.168H112.234V187.536H107.88V186.612H113.368V191.106H109.042V194.172ZM131.287 196.426H119.905V195.488H125.001V192.786H121.249V186.374H122.383V188.614H128.795V186.374H129.915V192.786H126.163V195.488H131.287V196.426ZM128.795 191.862V189.552H122.383V191.862H128.795ZM143.032 198.036H141.94V185.478H143.032V198.036ZM140.47 185.758V197.42H139.392V190.938H137.32V189.986H139.392V185.758H140.47ZM136.088 189.02C136.088 191.036 137.04 193.164 138.678 194.172L138.02 195.068C136.83 194.34 135.99 193.01 135.542 191.484C135.094 193.178 134.184 194.564 132.938 195.348L132.224 194.48C133.946 193.472 134.982 191.232 134.982 189.062V186.668H136.088V189.02ZM156.219 196.426H144.809V195.474H147.609V192.086C146.545 191.54 145.929 190.63 145.929 189.496C145.929 187.55 147.833 186.276 150.493 186.276C153.167 186.276 155.057 187.55 155.057 189.496C155.057 190.63 154.469 191.526 153.405 192.072V195.474H156.219V196.426ZM150.493 187.172C148.477 187.172 147.035 188.096 147.035 189.496C147.035 190.896 148.477 191.82 150.493 191.82C152.509 191.82 153.965 190.896 153.965 189.496C153.965 188.096 152.509 187.172 150.493 187.172ZM152.257 195.474V192.52C151.655 192.646 151.067 192.716 150.493 192.716C149.877 192.716 149.303 192.646 148.757 192.52V195.474H152.257ZM159.199 187.97L159.031 194.494H158.149L157.981 187.97L157.939 186.514H159.241L159.199 187.97ZM157.953 197.182V195.866H159.227V197.182H157.953Z" fill="#B8B8B8"/>
<path d="M61.6411 74.359H83.5962V58.6539H61.6411V74.359ZM61.6411 53.8462H83.5962V25.6411H61.6411V53.8462ZM88.4039 74.359H110.359V46.1539H88.4039V74.359ZM88.4039 41.3462H110.359V25.6411H88.4039V41.3462ZM58.1156 85.4166C56.0109 85.4166 54.2293 84.6875 52.771 83.2291C51.3127 81.7708 50.5835 79.9893 50.5835 77.8845V22.1156C50.5835 20.0109 51.3127 18.2293 52.771 16.771C54.2293 15.3127 56.0109 14.5835 58.1156 14.5835H113.885C115.989 14.5835 117.771 15.3127 119.229 16.771C120.687 18.2293 121.417 20.0109 121.417 22.1156V30.7694H128.788V37.0192H121.417V46.8752H128.788V53.125H121.417V62.9809H128.788V69.2307H121.417V77.8845C121.417 79.9893 120.687 81.7708 119.229 83.2291C117.771 84.6875 115.989 85.4166 113.885 85.4166H58.1156ZM58.1156 79.1667H113.885C114.205 79.1667 114.499 79.0332 114.766 78.7661C115.033 78.4989 115.167 78.2051 115.167 77.8845V22.1156C115.167 21.795 115.033 21.5012 114.766 21.234C114.499 20.9669 114.205 20.8334 113.885 20.8334H58.1156C57.795 20.8334 57.5012 20.9669 57.234 21.234C56.9669 21.5012 56.8334 21.795 56.8334 22.1156V77.8845C56.8334 78.2051 56.9669 78.4989 57.234 78.7661C57.5012 79.0332 57.795 79.1667 58.1156 79.1667Z" fill="#DDDDDD"/>
</svg>
